<svg width="603" height="378" viewBox="0 0 603 378" fill="none" xmlns="http://www.w3.org/2000/svg">
<g clip-path="url(#clip0)">
<rect width="603" height="378" fill="#F6B725"/>
<path d="M390.01 298.291C365.035 276.747 354.216 296.964 351.928 309.765H415.25C414.542 292.53 398.128 294.934 390.01 298.291Z" fill="#6C63FF" stroke="black" stroke-width="4"/>
<path d="M57 310.626H465.526" stroke="black" stroke-width="3"/>
<path d="M302.832 83.281V309.234H288.089V67.8112" stroke="black" stroke-width="4"/>
<path d="M214.309 67.5034V308.926H199.566V82.5044" stroke="black" stroke-width="4"/>
<path d="M250.945 28.5947L195.1 87.1923L188.622 80.395L250.945 15L313.939 79.6918L306.79 87.1923L250.945 28.5947Z" fill="#F7F7F7" stroke="black" stroke-width="3"/>
<path d="M302.767 115.788H409.096L423.393 151.416M423.393 151.416H302.767M423.393 151.416V307.988H302.767" stroke="black" stroke-width="3.5"/>
<path d="M199.119 117.194H94.5768L79.8336 152.353M79.8336 152.353H199.119M79.8336 152.353V308.457H198.226" stroke="black" stroke-width="3.5"/>
<path d="M278.431 116.256C278.431 132.072 266.235 144.727 251.391 144.727C236.547 144.727 224.352 132.072 224.352 116.256C224.352 100.44 236.547 87.7853 251.391 87.7853C266.235 87.7853 278.431 100.44 278.431 116.256Z" fill="white" stroke="black" stroke-width="4"/>
<ellipse cx="251.392" cy="115.319" rx="2.23381" ry="2.34391" fill="black"/>
<rect x="250.05" y="92.3484" width="3.5741" height="16.8761" rx="1.78705" fill="black"/>
<rect width="3.66252" height="9.71542" rx="1.83126" transform="matrix(0.692833 0.721098 -0.68696 0.726695 260.654 103.007)" fill="black"/>
<rect x="95.1835" y="166.982" width="23.8058" height="37.3152" fill="#E1DED5" stroke="black" stroke-width="3"/>
<path d="M95.0251 187.981H119.15" stroke="black" stroke-width="3"/>
<rect x="129.14" y="166.979" width="23.8058" height="37.3152" fill="#E1DED5" stroke="black" stroke-width="3"/>
<path d="M128.978 187.981H153.103" stroke="black" stroke-width="3"/>
<rect x="163.091" y="166.979" width="23.8058" height="37.3152" fill="#E1DED5" stroke="black" stroke-width="3"/>
<path d="M162.933 187.981H187.058" stroke="black" stroke-width="3"/>
<rect x="95.1845" y="211.046" width="23.8058" height="37.3152" fill="#E1DED5" stroke="black" stroke-width="3"/>
<path d="M95.0248 232.045H119.15" stroke="black" stroke-width="3"/>
<rect x="129.141" y="211.044" width="23.8058" height="37.3152" fill="#E1DED5" stroke="black" stroke-width="3"/>
<path d="M128.979 232.044H153.104" stroke="black" stroke-width="3"/>
<rect x="163.092" y="211.044" width="23.8058" height="37.3152" fill="#E1DED5" stroke="black" stroke-width="3"/>
<path d="M162.933 232.044H187.058" stroke="black" stroke-width="3"/>
<rect x="95.1833" y="255.112" width="23.8058" height="37.3152" fill="#E1DED5" stroke="black" stroke-width="3"/>
<path d="M95.0246 276.112H119.15" stroke="black" stroke-width="3"/>
<rect x="129.14" y="255.111" width="23.8058" height="37.3152" fill="#E1DED5" stroke="black" stroke-width="3"/>
<path d="M128.978 276.112H153.103" stroke="black" stroke-width="3"/>
<rect x="163.091" y="255.111" width="23.8058" height="37.3152" fill="#E1DED5" stroke="black" stroke-width="3"/>
<path d="M162.932 276.112H187.057" stroke="black" stroke-width="3"/>
<rect x="407.598" y="292.423" width="23.8058" height="37.3152" transform="rotate(-180 407.598 292.423)" fill="#E1DED5" stroke="black" stroke-width="3"/>
<path d="M407.758 271.421H383.633" stroke="black" stroke-width="3"/>
<rect x="373.643" y="292.424" width="23.8058" height="37.3152" transform="rotate(-180 373.643 292.424)" fill="#E1DED5" stroke="black" stroke-width="3"/>
<path d="M373.805 271.421H349.68" stroke="black" stroke-width="3"/>
<rect x="339.69" y="292.424" width="23.8058" height="37.3152" transform="rotate(-180 339.69 292.424)" fill="#E1DED5" stroke="black" stroke-width="3"/>
<path d="M339.851 271.421H315.725" stroke="black" stroke-width="3"/>
<rect x="407.598" y="248.356" width="23.8058" height="37.3152" transform="rotate(-180 407.598 248.356)" fill="#E1DED5" stroke="black" stroke-width="3"/>
<path d="M407.757 227.357H383.632" stroke="black" stroke-width="3"/>
<rect x="373.643" y="248.359" width="23.8058" height="37.3152" transform="rotate(-180 373.643 248.359)" fill="#E1DED5" stroke="black" stroke-width="3"/>
<path d="M373.802 227.357H349.677" stroke="black" stroke-width="3"/>
<rect x="339.69" y="248.359" width="23.8058" height="37.3152" transform="rotate(-180 339.69 248.359)" fill="#E1DED5" stroke="black" stroke-width="3"/>
<path d="M339.849 227.358H315.724" stroke="black" stroke-width="3"/>
<rect x="407.598" y="204.289" width="23.8058" height="37.3152" transform="rotate(-180 407.598 204.289)" fill="#E1DED5" stroke="black" stroke-width="3"/>
<path d="M407.757 183.29H383.632" stroke="black" stroke-width="3"/>
<rect x="373.643" y="204.293" width="23.8058" height="37.3152" transform="rotate(-180 373.643 204.293)" fill="#E1DED5" stroke="black" stroke-width="3"/>
<path d="M373.802 183.291H349.677" stroke="black" stroke-width="3"/>
<rect x="339.69" y="204.293" width="23.8058" height="37.3152" transform="rotate(-180 339.69 204.293)" fill="#E1DED5" stroke="black" stroke-width="3"/>
<path d="M339.849 183.292H315.724" stroke="black" stroke-width="3"/>
<path d="M233.286 266.66C233.286 256.415 241.592 248.109 251.837 248.109C262.083 248.109 270.388 256.415 270.388 266.66V307.863H233.286V266.66Z" fill="white" stroke="black" stroke-width="4"/>
<path d="M251.765 246.143L251.765 309.768" stroke="black" stroke-width="3"/>
<path d="M384.974 126.569C386.761 128.913 391.407 132.195 395.696 126.569M359.062 137.82C360.849 140.164 365.495 143.446 369.784 137.82M320.193 127.976C321.98 130.32 326.627 133.601 330.916 127.976" stroke="black" stroke-width="3"/>
<path d="M170.973 127.039C172.76 129.383 177.406 132.664 181.695 127.039M145.061 138.29C146.848 140.634 151.494 143.915 155.783 138.29M106.193 128.445C107.98 130.789 112.626 134.071 116.915 128.445" stroke="black" stroke-width="3"/>
<path d="M445.202 126.37V134.832M445.202 311.985V134.832M445.202 134.832C450.454 132.524 462.295 126.37 468.834 135.986L474.613 147.14L475.211 148.294C471.335 146.243 463.132 142.755 461.332 145.217C464.208 149.833 471.16 159.449 475.961 160.987C471.96 161.372 465.083 160.218 461.332 157.91C456.831 155.602 450.304 152.371 445.202 160.987" stroke="black" stroke-width="3"/>
<path d="M451.967 122.671C451.967 126.566 448.97 129.641 445.372 129.641C441.775 129.641 438.777 126.566 438.777 122.671C438.777 118.777 441.775 115.702 445.372 115.702C448.97 115.702 451.967 118.777 451.967 122.671Z" fill="#6C63FF" stroke="black" stroke-width="2"/>
<path d="M299.579 297.542C284.839 292.72 281.006 303.414 280.932 309.364H326.217C320.889 284.514 306.238 291.128 299.579 297.542Z" fill="#6C63FF" stroke="black" stroke-width="4"/>
<path d="M199.368 297.274C213.483 292.671 217.154 302.879 217.225 308.558H173.859C178.96 284.838 192.991 291.152 199.368 297.274Z" fill="#6C63FF" stroke="black" stroke-width="4"/>
<path d="M110.75 296.239C136.784 273.866 148.063 294.861 150.448 308.154H84.4388C85.1774 290.256 102.287 292.753 110.75 296.239Z" fill="#6C63FF" stroke="black" stroke-width="4"/>
<path d="M491.286 402.949L499.685 404.239L512.929 337.483L535.864 298.462L563.645 411.979L573.981 413.914C572.822 349.988 578.48 269.508 565.583 259.763L509.376 266.213L484.825 332.001L491.286 402.949Z" fill="#2F2E41"/>
<path d="M531.987 160.436C542.691 160.436 551.368 151.773 551.368 141.086C551.368 130.4 542.691 121.737 531.987 121.737C521.282 121.737 512.605 130.4 512.605 141.086C512.605 151.773 521.282 160.436 531.987 160.436Z" fill="#FFB8B8"/>
<path d="M559.123 170.754L535.865 174.624L530.05 153.984L546.848 148.824L559.123 170.754Z" fill="#FFB8B8"/>
<path d="M568.812 262.341L506.79 268.146C511.763 250.885 516.318 233.685 512.605 216.547C507.889 201.247 512.441 192.148 524.88 184.943L533.279 166.238L555.891 163.658C561.879 173.27 564.328 184.663 562.819 195.882C559.597 220.277 560.467 242.914 568.812 262.341Z" fill="#6C63FF"/>
<path d="M531.551 118.233C525.083 119.709 517.72 121.799 517.308 123.742C510.654 125.416 505.631 129.426 504.606 135.538C504.52 136.067 504.551 136.607 504.698 137.122C504.844 137.637 505.102 138.114 505.452 138.519C505.803 138.923 506.238 139.246 506.728 139.465C507.217 139.684 507.749 139.793 508.285 139.784C511.903 139.737 517.335 139.391 520.922 137.896C531.343 144.599 533.092 162.032 528.541 173.899L535.702 173.244L543.111 151.592L545.003 172.393L561.344 170.236L559.239 143.712C558.592 137.46 556.461 131.453 553.023 126.188C552.666 125.66 552.275 125.154 551.853 124.675C549.367 121.872 546.167 119.792 542.593 118.658C539.018 117.524 535.202 117.377 531.551 118.233V118.233Z" fill="#2F2E41"/>
<path d="M467.777 431.218H471.519L484.617 374.555L491.478 431.841H495.844L501.769 358.054L471.519 357.743L467.777 431.218Z" fill="#3F3D56"/>
<path d="M450.937 327.231H455.926V315.4L457.061 313.134C457.289 312.679 457.406 312.177 457.403 311.668C457.399 311.16 457.275 310.659 457.041 310.208C456.807 309.756 456.47 309.366 456.056 309.069C455.643 308.773 455.165 308.578 454.661 308.5V308.5C454.2 308.43 453.73 308.459 453.282 308.587C452.833 308.715 452.418 308.938 452.064 309.241C451.711 309.544 451.427 309.92 451.232 310.342C451.037 310.765 450.937 311.225 450.937 311.69V327.231V327.231Z" fill="#FFB8B8"/>
<path d="M480.564 297.965C486.937 297.965 492.103 292.808 492.103 286.446C492.103 280.084 486.937 274.927 480.564 274.927C474.192 274.927 469.026 280.084 469.026 286.446C469.026 292.808 474.192 297.965 480.564 297.965Z" fill="#FFB8B8"/>
<path d="M475.885 306.061H487.736V292.363H475.885V306.061Z" fill="#FFB8B8"/>
<path d="M470.271 359.61C480.76 366.073 491.85 365.441 503.328 360.233L500.833 302.325L487.735 301.702L474.013 303.57L467.152 309.174L470.271 359.61Z" fill="#6C63FF"/>
<path d="M457.797 339.06L471.519 328.475L467.153 309.172L459.045 324.116L456.55 321.625L449.065 327.229L457.797 339.06Z" fill="#6C63FF"/>
<path d="M518.709 303.318L514.345 305.733L508.6 295.385L506.507 293.952C506.087 293.665 505.741 293.282 505.497 292.836C505.253 292.389 505.118 291.892 505.104 291.383C505.089 290.875 505.195 290.371 505.412 289.911C505.63 289.451 505.953 289.049 506.356 288.738V288.738C506.725 288.453 507.151 288.251 507.605 288.146C508.059 288.041 508.53 288.035 508.987 288.129C509.444 288.223 509.874 288.414 510.25 288.69C510.626 288.965 510.937 289.319 511.163 289.726L512.964 292.971L518.709 303.318Z" fill="#FFB8B8"/>
<path d="M494.286 320.693L510.847 311.917L519.547 307.306L520.794 299.834L515.181 294.23L508.32 298.589L508.944 303.57L500.835 302.325L494.286 320.693Z" fill="#6C63FF"/>
<path d="M483.058 295.787C490.636 295.787 496.779 289.654 496.779 282.088C496.779 274.522 490.636 268.389 483.058 268.389C475.479 268.389 469.336 274.522 469.336 282.088C469.336 289.654 475.479 295.787 483.058 295.787Z" fill="#2F2E41"/>
<path d="M490.544 272.746C493.989 272.746 496.781 269.959 496.781 266.52C496.781 263.081 493.989 260.293 490.544 260.293C487.099 260.293 484.307 263.081 484.307 266.52C484.307 269.959 487.099 272.746 490.544 272.746Z" fill="#2F2E41"/>
<path d="M490.24 271.726C491.477 272.371 492.894 272.582 494.265 272.328C495.637 272.074 496.883 271.367 497.805 270.323C498.727 269.278 499.271 267.954 499.351 266.564C499.431 265.174 499.042 263.797 498.245 262.654C498.967 263.195 499.561 263.887 499.989 264.68C500.416 265.474 500.665 266.351 500.72 267.25C500.775 268.149 500.633 269.05 500.305 269.889C499.977 270.728 499.47 271.487 498.82 272.111C498.169 272.736 497.391 273.212 496.538 273.507C495.686 273.802 494.779 273.909 493.881 273.819C492.983 273.73 492.115 273.447 491.337 272.991C490.559 272.534 489.89 271.914 489.376 271.173C489.648 271.381 489.937 271.566 490.24 271.726V271.726Z" fill="#2F2E41"/>
<path d="M528.756 281.692L529.185 296.666C529.244 298.73 528.517 300.74 527.151 302.29C525.786 303.841 523.882 304.817 521.824 305.023C520.506 305.154 519.175 304.964 517.947 304.469C516.719 303.973 515.629 303.188 514.773 302.179C513.916 301.17 513.317 299.969 513.029 298.678C512.74 297.387 512.77 296.046 513.116 294.769L516.481 282.337L526.172 229.448L525.526 198.489L546.2 197.844L542.323 232.673L528.756 281.692Z" fill="#FFB8B8"/>
<path d="M547.494 201.067C540.004 198.218 531.726 198.218 524.236 201.067L525.528 175.267C525.528 172.53 526.617 169.906 528.556 167.97C530.494 166.035 533.123 164.948 535.865 164.948V164.948C538.607 164.948 541.236 166.035 543.174 167.97C545.113 169.906 546.202 172.53 546.202 175.267L547.494 201.067Z" fill="#6C63FF"/>
<path d="M465.513 373.349C409.943 385.263 304.832 344.186 259.5 316.358L240 316.358C254.37 356.749 381.907 433.808 440.032 462.289L465.513 373.349Z" fill="#C4C4C4"/>
</g>
<defs>
<clipPath id="clip0">
<rect width="603" height="378" fill="white"/>
</clipPath>
</defs>
</svg>
