<svg width="603" height="378" viewBox="0 0 603 378" fill="none" xmlns="http://www.w3.org/2000/svg">
<g clip-path="url(#clip0)">
<rect width="603" height="378" fill="url(#paint0_linear)"/>
<path d="M377.708 309.69C352.081 287.584 340.979 308.329 338.631 321.464H403.607C402.88 303.779 386.038 306.246 377.708 309.69Z" fill="#6C63FF" stroke="black" stroke-width="4"/>
<path d="M36 322.347H455.196" stroke="black" stroke-width="3"/>
<path d="M288.253 89.0644V320.919H273.125V73.1905" stroke="black" stroke-width="4"/>
<path d="M197.418 72.8747V320.603H182.29V88.2676" stroke="black" stroke-width="4"/>
<path d="M235.011 32.9497L177.707 93.0779L171.06 86.103L235.011 18.9999L299.65 85.3814L292.315 93.0779L235.011 32.9497Z" fill="#F7F7F7" stroke="black" stroke-width="3"/>
<path d="M288.186 122.421H397.293L411.963 158.979M411.963 158.979H288.186M411.963 158.979V319.641H288.186" stroke="black" stroke-width="3.5"/>
<path d="M181.831 123.863H74.5583L59.43 159.94M59.43 159.94H181.831M59.43 159.94V320.122H180.914" stroke="black" stroke-width="3.5"/>
<path d="M263.267 122.901C263.267 139.156 250.731 152.167 235.469 152.167C220.206 152.167 207.67 139.156 207.67 122.901C207.67 106.645 220.206 93.6341 235.469 93.6341C250.731 93.6341 263.267 106.645 263.267 122.901Z" fill="white" stroke="black" stroke-width="4"/>
<ellipse cx="235.469" cy="121.939" rx="2.29216" ry="2.40513" fill="black"/>
<rect x="234.092" y="98.3686" width="3.66745" height="17.3169" rx="1.83373" fill="black"/>
<rect width="3.75818" height="9.96918" rx="1.87909" transform="matrix(0.692833 0.721098 -0.68696 0.726695 244.974 109.306)" fill="black"/>
<rect x="75.1414" y="174.913" width="24.5059" height="38.3682" fill="#E1DED5" stroke="black" stroke-width="3"/>
<path d="M75.0183 196.499H99.7736" stroke="black" stroke-width="3"/>
<rect x="109.985" y="174.91" width="24.5059" height="38.3682" fill="#E1DED5" stroke="black" stroke-width="3"/>
<path d="M109.858 196.499H134.614" stroke="black" stroke-width="3"/>
<rect x="144.823" y="174.91" width="24.5059" height="38.3682" fill="#E1DED5" stroke="black" stroke-width="3"/>
<path d="M144.699 196.499H169.455" stroke="black" stroke-width="3"/>
<rect x="75.1427" y="220.127" width="24.5059" height="38.3682" fill="#E1DED5" stroke="black" stroke-width="3"/>
<path d="M75.018 241.714H99.7733" stroke="black" stroke-width="3"/>
<rect x="109.986" y="220.125" width="24.5059" height="38.3682" fill="#E1DED5" stroke="black" stroke-width="3"/>
<path d="M109.859 241.713H134.615" stroke="black" stroke-width="3"/>
<rect x="144.824" y="220.125" width="24.5059" height="38.3682" fill="#E1DED5" stroke="black" stroke-width="3"/>
<path d="M144.7 241.713H169.455" stroke="black" stroke-width="3"/>
<rect x="75.1415" y="265.344" width="24.5059" height="38.3682" fill="#E1DED5" stroke="black" stroke-width="3"/>
<path d="M75.0178 286.932H99.7731" stroke="black" stroke-width="3"/>
<rect x="109.985" y="265.343" width="24.5059" height="38.3682" fill="#E1DED5" stroke="black" stroke-width="3"/>
<path d="M109.858 286.932H134.614" stroke="black" stroke-width="3"/>
<rect x="144.822" y="265.343" width="24.5059" height="38.3682" fill="#E1DED5" stroke="black" stroke-width="3"/>
<path d="M144.699 286.932H169.454" stroke="black" stroke-width="3"/>
<rect x="395.795" y="303.708" width="24.5059" height="38.3682" transform="rotate(-180 395.795 303.708)" fill="#E1DED5" stroke="black" stroke-width="3"/>
<path d="M395.919 282.119H371.164" stroke="black" stroke-width="3"/>
<rect x="360.953" y="303.709" width="24.5059" height="38.3682" transform="rotate(-180 360.953 303.709)" fill="#E1DED5" stroke="black" stroke-width="3"/>
<path d="M361.079 282.119H336.324" stroke="black" stroke-width="3"/>
<rect x="326.113" y="303.709" width="24.5059" height="38.3682" transform="rotate(-180 326.113 303.709)" fill="#E1DED5" stroke="black" stroke-width="3"/>
<path d="M326.238 282.119H301.483" stroke="black" stroke-width="3"/>
<rect x="395.795" y="258.49" width="24.5059" height="38.3682" transform="rotate(-180 395.795 258.49)" fill="#E1DED5" stroke="black" stroke-width="3"/>
<path d="M395.918 236.904H371.163" stroke="black" stroke-width="3"/>
<rect x="360.953" y="258.493" width="24.5059" height="38.3682" transform="rotate(-180 360.953 258.493)" fill="#E1DED5" stroke="black" stroke-width="3"/>
<path d="M361.077 236.903H336.322" stroke="black" stroke-width="3"/>
<rect x="326.113" y="258.493" width="24.5059" height="38.3682" transform="rotate(-180 326.113 258.493)" fill="#E1DED5" stroke="black" stroke-width="3"/>
<path d="M326.237 236.904H301.482" stroke="black" stroke-width="3"/>
<rect x="395.795" y="213.272" width="24.5059" height="38.3682" transform="rotate(-180 395.795 213.272)" fill="#E1DED5" stroke="black" stroke-width="3"/>
<path d="M395.918 191.686H371.163" stroke="black" stroke-width="3"/>
<rect x="360.953" y="213.276" width="24.5059" height="38.3682" transform="rotate(-180 360.953 213.276)" fill="#E1DED5" stroke="black" stroke-width="3"/>
<path d="M361.077 191.687H336.322" stroke="black" stroke-width="3"/>
<rect x="326.113" y="213.276" width="24.5059" height="38.3682" transform="rotate(-180 326.113 213.276)" fill="#E1DED5" stroke="black" stroke-width="3"/>
<path d="M326.237 191.688H301.482" stroke="black" stroke-width="3"/>
<path d="M216.838 277.233C216.838 266.691 225.384 258.145 235.926 258.145C246.468 258.145 255.014 266.691 255.014 277.233V319.565H216.838V277.233Z" fill="white" stroke="black" stroke-width="4"/>
<path d="M235.852 256.18L235.852 321.467" stroke="black" stroke-width="3"/>
<path d="M372.54 133.484C374.374 135.889 379.142 139.256 383.543 133.484M345.951 145.028C347.785 147.433 352.553 150.8 356.954 145.028M306.068 134.927C307.901 137.332 312.669 140.699 317.07 134.927" stroke="black" stroke-width="3"/>
<path d="M152.95 133.965C154.784 136.37 159.551 139.738 163.952 133.965M126.361 145.51C128.195 147.915 132.962 151.282 137.363 145.51M86.4774 135.408C88.3111 137.813 93.0788 141.181 97.4797 135.408" stroke="black" stroke-width="3"/>
<path d="M434.342 133.278V141.961M434.342 323.742V141.961M434.342 141.961C439.73 139.593 451.881 133.278 458.591 143.146L464.521 154.591L465.134 155.775C461.157 153.67 452.74 150.092 450.893 152.618C453.844 157.354 460.977 167.221 465.904 168.8C461.798 169.195 454.742 168.011 450.893 165.643C446.274 163.275 439.576 159.959 434.342 168.8" stroke="black" stroke-width="3"/>
<path d="M441.31 129.484C441.31 133.494 438.223 136.661 434.516 136.661C430.809 136.661 427.723 133.494 427.723 129.484C427.723 125.474 430.809 122.306 434.516 122.306C438.223 122.306 441.31 125.474 441.31 129.484Z" fill="#6C63FF" stroke="black" stroke-width="2"/>
<path d="M284.915 308.921C269.79 303.974 265.857 314.947 265.781 321.052H312.249C306.782 295.554 291.748 302.341 284.915 308.921Z" fill="#6C63FF" stroke="black" stroke-width="4"/>
<path d="M182.087 308.646C196.571 303.924 200.337 314.398 200.41 320.226H155.911C161.146 295.886 175.543 302.365 182.087 308.646Z" fill="#6C63FF" stroke="black" stroke-width="4"/>
<path d="M91.154 307.584C117.868 284.628 129.441 306.17 131.888 319.811H64.1555C64.9134 301.446 82.4702 304.008 91.154 307.584Z" fill="#6C63FF" stroke="black" stroke-width="4"/>
<path d="M481.629 417.082L490.247 418.406L503.837 349.906L527.372 309.866L555.878 426.347L566.485 428.333C565.295 362.738 571.101 280.156 557.867 270.156L500.191 276.774L475 344.281L481.629 417.082Z" fill="#2F2E41"/>
<path d="M523.393 168.234C534.377 168.234 543.281 159.345 543.281 148.38C543.281 137.414 534.377 128.525 523.393 128.525C512.409 128.525 503.505 137.414 503.505 148.38C503.505 159.345 512.409 168.234 523.393 168.234Z" fill="#FFB8B8"/>
<path d="M551.238 178.822L527.372 182.793L521.406 161.614L538.642 156.32L551.238 178.822Z" fill="#FFB8B8"/>
<path d="M561.18 272.801L497.539 278.757C502.641 261.046 507.315 243.397 503.505 225.811C498.666 210.112 503.337 200.775 516.101 193.382L524.719 174.189L547.922 171.541C554.066 181.404 556.579 193.095 555.03 204.606C551.724 229.639 552.617 252.867 561.18 272.801Z" fill="#6C63FF"/>
<path d="M522.946 124.93C516.309 126.444 508.754 128.589 508.33 130.582C501.503 132.3 496.349 136.414 495.297 142.687C495.209 143.229 495.241 143.784 495.391 144.312C495.541 144.84 495.806 145.33 496.166 145.745C496.526 146.16 496.972 146.492 497.474 146.716C497.976 146.94 498.522 147.052 499.072 147.043C502.785 146.996 508.359 146.64 512.04 145.106C522.732 151.984 524.527 169.873 519.858 182.049L527.206 181.377L534.808 159.16L536.749 180.504L553.517 178.29L551.358 151.074C550.694 144.659 548.507 138.494 544.979 133.092C544.612 132.55 544.212 132.031 543.779 131.54C541.228 128.663 537.944 126.529 534.276 125.365C530.608 124.202 526.693 124.051 522.946 124.93Z" fill="#2F2E41"/>
<path d="M457.506 446.089H461.346L474.786 387.946L481.826 446.728H486.306L492.386 371.014L461.346 370.695L457.506 446.089Z" fill="#3F3D56"/>
<path d="M440.226 339.386H445.346V327.247L446.511 324.921C446.744 324.454 446.864 323.939 446.861 323.417C446.857 322.895 446.73 322.382 446.49 321.918C446.25 321.455 445.904 321.055 445.479 320.75C445.055 320.446 444.564 320.246 444.048 320.166C443.575 320.094 443.092 320.124 442.632 320.255C442.172 320.386 441.746 320.615 441.383 320.926C441.02 321.237 440.729 321.623 440.529 322.056C440.329 322.49 440.226 322.962 440.226 323.44V339.386Z" fill="#FFB8B8"/>
<path d="M470.628 309.356C477.167 309.356 482.468 304.064 482.468 297.536C482.468 291.008 477.167 285.716 470.628 285.716C464.089 285.716 458.788 291.008 458.788 297.536C458.788 304.064 464.089 309.356 470.628 309.356Z" fill="#FFB8B8"/>
<path d="M465.826 317.664H477.986V303.607H465.826V317.664Z" fill="#FFB8B8"/>
<path d="M460.065 372.611C470.829 379.243 482.208 378.594 493.985 373.25L491.425 313.829L477.985 313.19L463.905 315.107L456.865 320.858L460.065 372.611Z" fill="#6C63FF"/>
<path d="M447.266 351.524L461.346 340.663L456.866 320.856L448.546 336.19L445.986 333.634L438.306 339.385L447.266 351.524Z" fill="#6C63FF"/>
<path d="M509.769 314.849L505.29 317.327L499.396 306.709L497.248 305.238C496.817 304.943 496.461 304.551 496.211 304.093C495.961 303.635 495.823 303.124 495.808 302.602C495.793 302.081 495.901 301.563 496.125 301.091C496.348 300.62 496.68 300.207 497.093 299.888C497.471 299.596 497.908 299.388 498.374 299.281C498.84 299.173 499.324 299.167 499.793 299.263C500.261 299.359 500.703 299.555 501.089 299.838C501.474 300.121 501.794 300.484 502.025 300.901L503.874 304.231L509.769 314.849Z" fill="#FFB8B8"/>
<path d="M484.708 332.678L501.701 323.672L510.628 318.941L511.908 311.274L506.148 305.523L499.108 309.996L499.748 315.107L491.428 313.829L484.708 332.678Z" fill="#6C63FF"/>
<path d="M473.186 307.121C480.962 307.121 487.266 300.828 487.266 293.064C487.266 285.301 480.962 279.008 473.186 279.008C465.41 279.008 459.106 285.301 459.106 293.064C459.106 300.828 465.41 307.121 473.186 307.121Z" fill="#2F2E41"/>
<path d="M480.868 283.479C484.402 283.479 487.268 280.618 487.268 277.089C487.268 273.56 484.402 270.7 480.868 270.7C477.333 270.7 474.468 273.56 474.468 277.089C474.468 280.618 477.333 283.479 480.868 283.479Z" fill="#2F2E41"/>
<path d="M480.556 282.432C481.825 283.093 483.279 283.31 484.686 283.049C486.094 282.788 487.372 282.064 488.318 280.991C489.265 279.919 489.823 278.561 489.905 277.135C489.987 275.708 489.587 274.295 488.77 273.122C489.51 273.678 490.121 274.388 490.559 275.202C490.997 276.016 491.254 276.916 491.31 277.839C491.366 278.762 491.22 279.686 490.884 280.547C490.547 281.408 490.027 282.186 489.36 282.827C488.692 283.468 487.894 283.957 487.019 284.259C486.144 284.562 485.213 284.671 484.292 284.58C483.37 284.488 482.48 284.198 481.682 283.729C480.884 283.26 480.197 282.624 479.669 281.864C479.949 282.078 480.246 282.267 480.556 282.432Z" fill="#2F2E41"/>
<path d="M520.078 292.658L520.518 308.023C520.579 310.141 519.833 312.203 518.431 313.794C517.03 315.385 515.077 316.387 512.965 316.598C511.612 316.733 510.247 316.538 508.987 316.03C507.726 315.521 506.608 314.715 505.729 313.68C504.85 312.645 504.236 311.412 503.94 310.087C503.644 308.763 503.674 307.386 504.029 306.076L507.482 293.319L517.426 239.049L516.764 207.282L537.977 206.62L534 242.359L520.078 292.658Z" fill="#FFB8B8"/>
<path d="M539.305 209.927C531.62 207.004 523.126 207.004 515.44 209.927L516.766 183.453C516.766 180.645 517.883 177.952 519.872 175.966C521.862 173.98 524.559 172.864 527.373 172.864C530.186 172.864 532.884 173.98 534.873 175.966C536.862 177.952 537.98 180.645 537.98 183.453L539.305 209.927Z" fill="#6C63FF"/>
<path d="M455.184 386.709C398.162 398.934 290.305 356.784 243.789 328.229L223.78 328.229C238.525 369.675 369.393 448.747 429.036 477.972L455.184 386.709Z" fill="#C4C4C4"/>
</g>
<defs>
<linearGradient id="paint0_linear" x1="3.20062e-07" y1="25" x2="451.5" y2="414" gradientUnits="userSpaceOnUse">
<stop stop-color="#FFAC00"/>
<stop offset="0.745482" stop-color="#FAAF13" stop-opacity="0.282564"/>
<stop offset="1" stop-color="#F6B225" stop-opacity="0"/>
</linearGradient>
<clipPath id="clip0">
<rect width="603" height="378" fill="white"/>
</clipPath>
</defs>
</svg>
