<svg width="603" height="378" viewBox="0 0 603 378" fill="none" xmlns="http://www.w3.org/2000/svg">
<g clip-path="url(#clip0)">
<rect width="603" height="378" fill="#F6B725"/>
<path d="M117.627 384.006C116.65 384.896 115.156 384.874 113.83 384.776L107.788 384.331C102.988 383.975 98.0243 383.575 93.7899 381.274C93.3417 381.068 92.9447 380.764 92.6274 380.384C92.2908 379.802 92.1153 379.14 92.1191 378.467C91.5472 371.876 90.2455 365.371 88.2383 359.071C85.5863 350.684 81.6082 342.417 81.6613 333.638C81.6613 333.425 81.6613 333.194 81.6613 333.002C81.7364 330.252 82.2182 327.534 82.5143 324.797C83.005 320.219 82.9564 315.605 82.921 311.004C82.9588 309.2 82.8345 307.397 82.5497 305.616C82.2712 304.17 81.2237 302.719 81.8646 301.447C83.1066 298.977 87.6107 298.07 90.0329 297.981C93.2949 297.865 96.5038 298.724 99.6553 299.578C100.614 299.841 101.618 300.121 102.343 300.802C103.315 301.718 103.594 303.155 103.629 304.495C103.797 310.435 100.398 315.961 100.128 321.892C100.08 322.96 100.128 324.117 99.5095 325.007C99.1013 325.491 98.658 325.945 98.1834 326.364C96.8574 327.827 96.8176 330.034 96.9105 332.019C96.9502 332.82 96.9944 333.621 97.0475 334.422C97.7695 345.111 99.9148 355.654 103.426 365.768C103.764 366.848 104.208 367.891 104.752 368.882C105.638 370.274 106.746 371.51 108.031 372.54C109.852 374.105 111.802 375.51 113.861 376.74C115.236 377.559 116.704 378.342 117.645 379.641C118.586 380.94 118.794 382.912 117.627 384.006Z" fill="#FDA8A8"/>
<path opacity="0.1" d="M117.627 384.006C116.65 384.896 115.156 384.874 113.83 384.776L107.788 384.331C102.988 383.975 98.0243 383.575 93.7899 381.274C93.3417 381.068 92.9447 380.764 92.6274 380.384C92.2908 379.802 92.1153 379.14 92.1191 378.467C91.5472 371.876 90.2455 365.371 88.2383 359.071C85.5863 350.684 81.6082 342.417 81.6613 333.638C81.6613 333.425 81.6613 333.194 81.6613 333.002C81.7364 330.252 82.2182 327.534 82.5143 324.797C83.005 320.219 82.9564 315.605 82.921 311.004C82.9588 309.2 82.8345 307.397 82.5497 305.616C82.2712 304.17 81.2237 302.719 81.8646 301.447C83.1066 298.977 87.6107 298.07 90.0329 297.981C93.2949 297.865 96.5038 298.724 99.6553 299.578C100.614 299.841 101.618 300.121 102.343 300.802C103.315 301.718 103.594 303.155 103.629 304.495C103.797 310.435 100.398 315.961 100.128 321.892C100.08 322.96 100.128 324.117 99.5095 325.007C99.1013 325.491 98.658 325.945 98.1834 326.364C96.8574 327.827 96.8176 330.034 96.9105 332.019C96.9502 332.82 96.9944 333.621 97.0475 334.422C97.7695 345.111 99.9148 355.654 103.426 365.768C103.764 366.848 104.208 367.891 104.752 368.882C105.638 370.274 106.746 371.51 108.031 372.54C109.852 374.105 111.802 375.51 113.861 376.74C115.236 377.559 116.704 378.342 117.645 379.641C118.586 380.94 118.794 382.912 117.627 384.006Z" fill="black"/>
<path d="M117.627 384.005C116.65 384.895 115.156 384.873 113.83 384.775L107.788 384.33C102.988 383.974 98.0243 383.574 93.7899 381.273C93.3417 381.067 92.9447 380.763 92.6274 380.383C92.2908 379.801 92.1153 379.139 92.1191 378.466C91.5472 371.875 90.2455 365.37 88.2383 359.071C85.5863 350.684 81.6082 342.417 81.6613 333.638C86.7699 334.206 91.9081 334.462 97.0475 334.403C97.7695 345.092 99.9148 355.635 103.426 365.749C103.764 366.829 104.208 367.872 104.752 368.864C105.638 370.256 106.746 371.491 108.031 372.521C109.852 374.086 111.802 375.492 113.861 376.722C115.236 377.54 116.704 378.323 117.645 379.623C118.586 380.922 118.794 382.911 117.627 384.005Z" fill="#EEEFF3"/>
<path opacity="0.1" d="M117.627 384.005C116.65 384.895 115.156 384.873 113.83 384.775L107.788 384.33C102.988 383.974 98.0243 383.574 93.7899 381.273C93.3417 381.067 92.9447 380.763 92.6274 380.383C92.2908 379.801 92.1153 379.139 92.1191 378.466C91.5472 371.875 90.2455 365.37 88.2383 359.071C85.5863 350.684 81.6082 342.417 81.6613 333.638C86.7699 334.206 91.9081 334.462 97.0475 334.403C97.7695 345.092 99.9148 355.635 103.426 365.749C103.764 366.829 104.208 367.872 104.752 368.864C105.638 370.256 106.746 371.491 108.031 372.521C109.852 374.086 111.802 375.492 113.861 376.722C115.236 377.54 116.704 378.323 117.645 379.623C118.586 380.922 118.794 382.911 117.627 384.005Z" fill="black"/>
<path d="M104.277 382.128C102.825 381.605 101.43 380.934 100.113 380.126L93.4523 376.344C92.8505 375.952 92.18 375.678 91.4765 375.539L90.6809 381.523C90.482 382.992 90.3759 384.718 91.4765 385.701C91.8696 386.017 92.32 386.253 92.8026 386.395C95.2203 387.236 97.8282 387.254 100.387 387.334C108.246 387.588 116.185 388.513 123.929 387.125C124.875 386.956 125.9 386.68 126.47 385.924C127.12 385.034 126.934 383.744 126.307 382.84C125.619 381.982 124.743 381.295 123.747 380.834C121.776 379.766 119.73 378.858 117.683 377.946C117.557 377.871 117.407 377.845 117.263 377.875C117.064 377.942 117.002 378.186 116.949 378.391C116.591 379.85 115.424 381.003 114.094 381.692C114.076 381.692 107.221 383.072 104.277 382.128Z" fill="#BBBDC8"/>
<path opacity="0.1" d="M104.277 382.128C102.825 381.605 101.43 380.934 100.113 380.126L93.4523 376.344C92.8505 375.952 92.18 375.678 91.4765 375.539L90.6809 381.523C90.482 382.992 90.3759 384.718 91.4765 385.701C91.8696 386.017 92.32 386.253 92.8026 386.395C95.2203 387.236 97.8282 387.254 100.387 387.334C108.246 387.588 116.185 388.513 123.929 387.125C124.875 386.956 125.9 386.68 126.47 385.924C127.12 385.034 126.934 383.744 126.307 382.84C125.619 381.982 124.743 381.295 123.747 380.834C121.776 379.766 119.73 378.858 117.683 377.946C117.557 377.871 117.407 377.845 117.263 377.875C117.064 377.942 117.002 378.186 116.949 378.391C116.591 379.85 115.424 381.003 114.094 381.692C114.076 381.692 107.221 383.072 104.277 382.128Z" fill="black"/>
<path d="M113.206 390.236C112.23 391.125 110.736 391.103 109.41 391.005L103.367 390.56C98.5672 390.204 93.6035 389.804 89.369 387.504C88.9209 387.297 88.5238 386.993 88.2066 386.614C87.87 386.032 87.6944 385.369 87.6983 384.696C87.1263 378.106 85.8246 371.6 83.8174 365.301C81.1654 356.914 77.1874 348.647 77.2404 339.868C77.2404 339.654 77.2404 339.423 77.2404 339.232C77.3155 336.482 77.7973 333.763 78.0935 331.027C78.5841 326.448 78.5355 321.834 78.5001 317.234C78.5379 315.43 78.4137 313.626 78.1288 311.845C77.8504 310.399 76.8028 308.949 77.4437 307.676C78.6858 305.207 83.1898 304.299 85.612 304.21C88.874 304.094 92.083 304.953 95.2345 305.807C96.1936 306.07 97.197 306.35 97.9218 307.031C98.8943 307.948 99.1727 309.385 99.2081 310.724C99.3761 316.664 95.977 322.19 95.7074 328.121C95.6588 329.189 95.7074 330.346 95.0886 331.236C94.6804 331.721 94.2372 332.174 93.7626 332.593C92.4366 334.057 92.3968 336.264 92.4896 338.248C92.5294 339.049 92.5736 339.85 92.6266 340.651C93.3487 351.34 95.4939 361.883 99.0048 371.997C99.3432 373.077 99.7874 374.12 100.331 375.112C101.218 376.504 102.326 377.739 103.61 378.769C105.431 380.334 107.382 381.74 109.441 382.97C110.815 383.788 112.283 384.571 113.224 385.871C114.166 387.17 114.373 389.141 113.206 390.236Z" fill="#FDA8A8"/>
<path d="M113.206 390.236C112.23 391.126 110.736 391.104 109.41 391.006L103.367 390.561C98.5672 390.205 93.6035 389.804 89.369 387.504C88.9209 387.298 88.5238 386.994 88.2066 386.614C87.8699 386.032 87.6944 385.37 87.6983 384.696C87.1263 378.106 85.8246 371.601 83.8174 365.301C81.1654 356.914 77.1874 348.647 77.2404 339.868C82.349 340.437 87.4872 340.693 92.6266 340.634C93.3487 351.323 95.4939 361.866 99.0048 371.98C99.3432 373.06 99.7874 374.103 100.331 375.095C101.218 376.486 102.326 377.722 103.61 378.752C105.431 380.317 107.382 381.722 109.441 382.952C110.815 383.771 112.283 384.554 113.224 385.853C114.166 387.153 114.373 389.141 113.206 390.236Z" fill="#EEEFF3"/>
<path d="M121.775 209.75C119.622 207.08 119.565 203.351 119.618 199.925C119.618 198.591 119.658 197.211 119.706 195.854V195.823C119.766 193.329 120.028 190.844 120.489 188.392C120.721 187.216 121.031 186.057 121.417 184.922C121.125 184.855 120.833 184.793 120.533 184.739C115.9 183.818 111.132 183.818 106.499 184.739C105.699 184.9 103.675 184.864 102.521 185.26C102.193 185.339 101.907 185.541 101.721 185.825C101.496 186.301 101.96 187.681 102.296 188.904C102.48 189.456 102.585 190.031 102.605 190.613C102.56 191.159 102.478 191.702 102.358 192.237C102.15 193.22 101.876 194.195 101.748 195.191C101.522 196.891 101.721 198.622 101.611 200.335C101.5 202.048 101.01 203.85 99.7145 204.967C107.239 205.616 114.652 207.223 121.775 209.75Z" fill="#FDA8A8"/>
<path opacity="0.1" d="M100.594 192.039C101.182 192.088 101.765 192.146 102.362 192.212C108.249 192.845 114.059 194.067 119.706 195.861V195.83L120.488 188.399C120.488 187.954 120.488 187.509 120.488 187.042C120.488 186.281 120.51 185.511 120.528 184.746C115.895 183.825 111.128 183.825 106.494 184.746C105.694 184.906 103.67 184.871 102.516 185.267C102.516 185.992 102.516 186.717 102.49 187.442C102.461 187.936 102.394 188.427 102.291 188.911C102.08 190.112 101.483 191.211 100.594 192.039Z" fill="black"/>
<path d="M111.745 194.08C102.713 194.08 95.3908 186.71 95.3908 177.618C95.3908 168.525 102.713 161.155 111.745 161.155C120.777 161.155 128.099 168.525 128.099 177.618C128.099 186.71 120.777 194.08 111.745 194.08Z" fill="#FDA8A8"/>
<path d="M126.111 239.695C129.015 229.35 126.363 218.24 119.428 210.07C117.885 208.251 116.334 206.382 114.309 205.292C111.9 204.001 109.049 203.957 106.322 203.93C103.913 203.93 101.429 203.93 99.2149 204.896C96.2225 206.182 94.1583 208.976 92.4168 211.748C90.5604 214.702 88.8808 217.901 88.5979 221.39C88.4476 223.459 88.81 225.559 88.5051 227.619C88.1161 230.231 86.6707 232.571 86.0784 235.143C85.7558 236.531 85.6895 237.968 85.4817 239.383C85.1687 241.319 84.7137 243.228 84.1204 245.096C79.7286 259.775 73.7151 273.912 66.1926 287.241C63.9826 291.17 61.6178 295.055 60.1327 299.313C59.4608 301.239 58.9746 303.317 59.5227 305.302C60.4377 308.594 64.5704 310.53 67.6601 309.11C67.5457 309.476 67.569 309.871 67.7255 310.221C67.882 310.57 68.1608 310.85 68.5087 311.006C69.2433 311.34 70.0464 311.492 70.8513 311.451L98.1496 312.181C98.8666 312.199 99.5796 312.296 100.276 312.47C103.485 313.297 102.278 314.694 102.623 315.86C103.043 317.284 105.071 317.168 106.486 316.75C106.269 318.828 106.221 321.369 108.886 321.974C109.577 322.115 110.292 322.09 110.972 321.903C115.809 320.648 120.824 320.242 125.797 320.701C127.618 320.87 129.7 321.075 131.048 319.811C132.065 318.872 132.33 317.377 132.502 315.998C135.221 294.196 129.629 272.363 125.43 250.823C124.864 247.917 125.068 243.21 125.916 240.371L126.111 239.695Z" fill="black"/>
<path d="M89.8682 224.668C89.2273 226.528 88.4273 228.357 88.2107 230.314C88.0383 231.881 88.2461 233.465 88.1532 235.035C87.9837 236.779 87.6266 238.499 87.088 240.165C86.2371 243.406 85.1875 246.591 83.9453 249.701C83.3531 251.102 82.6679 252.646 83.1453 254.092C83.6227 255.538 85.1034 256.433 85.5277 257.87C85.9697 259.387 85.0857 260.984 83.9586 262.092C82.8315 263.2 81.4215 263.988 80.3784 265.167C79.2424 266.453 78.6103 268.095 77.8103 269.616C76.6743 271.629 75.3716 273.542 73.9162 275.334L68.5724 282.315C68.2392 282.818 67.802 283.243 67.2906 283.561C65.5225 284.486 63.6705 282.622 61.8716 281.781C59.4847 280.638 56.6913 281.309 54.0525 281.501C51.4137 281.692 48.2357 281.002 47.2942 278.52C46.9825 277.512 46.9173 276.443 47.1042 275.405C47.5177 271.855 48.5375 268.403 50.1186 265.202C51.0822 263.254 52.258 261.389 52.8635 259.302C53.3586 257.607 53.4558 255.823 53.8492 254.101C54.2426 252.379 54.9365 250.733 55.4934 249.051C59.445 237.1 56.4747 224.023 57.7521 211.493C58.225 206.87 59.6262 201.802 63.5777 199.395C65.9248 197.967 68.7448 197.744 71.5338 197.615L72.7935 197.558L74.8224 197.455C77.7573 197.308 80.701 197.197 83.5608 197.825C87.583 198.714 92.423 201.86 92.5822 206.381C92.7551 212.59 91.8363 218.781 89.8682 224.668Z" fill="#6C63FF"/>
<path opacity="0.1" d="M74.8014 197.435C74.2589 200.463 73.9882 203.534 73.9925 206.61C73.913 215.393 72.9715 224.141 72.0256 232.862L71.4024 238.646C71.2874 239.714 71.1504 240.835 70.5183 241.694C69.8863 242.553 68.5603 243.002 67.7249 242.339C67.2122 240.297 67.3138 238.152 67.4155 236.048C67.6365 231.571 67.856 227.094 68.0741 222.615C68.2862 218.254 68.5161 213.889 69.0421 209.556C69.4546 206.199 70.0627 202.869 70.8631 199.584C71.0149 198.904 71.2264 198.238 71.4952 197.595L72.7549 197.538L74.8014 197.435Z" fill="#040640"/>
<path d="M103.68 201.201C106.389 200.809 109.227 200.609 111.8 201.557C114.257 202.469 116.22 204.342 117.988 206.313C119.193 207.584 120.19 209.039 120.94 210.625C122.448 214.113 121.86 218.136 120.94 221.829C118.434 232 113.457 241.811 105.47 248.525C103.039 250.514 100.45 252.3 97.7306 253.865C94.1945 255.951 90.5435 257.869 86.6318 259.075C85.54 259.413 84.3776 259.698 83.2593 259.458C82.141 259.217 81.0846 258.305 81.0492 257.153C87.4583 253.526 93.2044 248.841 98.9107 244.178C100.475 242.963 101.94 241.624 103.291 240.174C105.315 237.882 106.743 235.115 108.706 232.77C110.474 230.665 112.684 228.89 114.01 226.483C114.842 224.839 115.399 223.068 115.658 221.241C116.312 217.517 116.436 213.562 114.969 210.078C113.501 206.594 110.138 203.733 106.381 203.795C104.453 203.826 102.619 204.596 100.842 205.348L89.6595 210.1C89.7966 210.038 89.0186 208.084 89.054 207.813C89.16 206.963 89.3103 206.95 89.938 206.305C91.0076 205.228 92.6696 204.471 94.0265 203.844C97.1019 202.502 100.353 201.612 103.68 201.201Z" fill="#6C63FF"/>
<path d="M125.939 174.503C122.749 173.79 119.796 172.257 117.369 170.054L119.707 182.406C117.377 181.329 115.119 180.105 112.944 178.739C112.63 184.39 113.086 190.17 115.154 195.429C117.223 200.688 121.037 205.396 126.156 207.732C121.612 208.497 117.532 205.213 113.488 202.993C110.668 201.449 105.85 203.038 102.765 202.103C100.148 201.329 97.4606 200.653 95.1003 199.269C90.7156 196.693 89.721 189.169 88.8326 184.141C87.9442 179.113 88.7531 173.907 90.2294 169.013C90.7207 167.279 91.3856 165.601 92.214 164.003C93.3526 161.904 94.9112 160.066 96.7914 158.605C98.6716 157.143 100.833 156.09 103.138 155.513C105.443 154.935 107.842 154.844 110.183 155.247C112.525 155.65 114.757 156.538 116.741 157.854C120.816 160.554 124.595 164.528 127.707 168.296C128.149 168.817 129.975 170.668 129.369 171.447C128.631 172.39 124.299 169.702 123.565 169.338C123.778 170.143 125.095 174.294 125.939 174.503Z" fill="black"/>
<g opacity="0.1">
<path opacity="0.1" d="M107.548 318.412C108.239 318.553 108.954 318.529 109.634 318.341C114.471 317.087 119.486 316.68 124.459 317.14C126.28 317.309 128.362 317.513 129.71 316.25C130.727 315.311 130.992 313.816 131.164 312.436C133.883 290.634 128.291 268.801 124.092 247.261C123.527 244.356 123.73 239.648 124.579 236.809L124.777 236.12C126.414 230.237 126.317 224.003 124.499 218.175C127.515 224.938 128.085 232.55 126.112 239.693L125.913 240.382C125.065 243.221 124.861 247.946 125.427 250.834C129.613 272.374 135.204 294.22 132.499 316.009C132.327 317.389 132.057 318.884 131.045 319.823C129.719 321.073 127.615 320.868 125.794 320.712C120.821 320.253 115.806 320.66 110.969 321.914C110.289 322.102 109.574 322.126 108.883 321.985C106.708 321.491 106.341 319.707 106.394 317.94C106.747 318.167 107.138 318.326 107.548 318.412Z" fill="black"/>
<path opacity="0.1" d="M66.3253 305.548C66.2109 305.914 66.2342 306.309 66.3907 306.659C66.5472 307.008 66.826 307.288 67.1739 307.444C67.9085 307.777 68.7116 307.93 69.5165 307.889L96.8148 308.618C97.5318 308.636 98.2448 308.733 98.9409 308.908C102.15 309.735 100.943 311.132 101.288 312.298C101.708 313.722 103.737 313.606 105.151 313.188C105.018 314.456 104.952 315.893 105.522 316.961C104.28 317.148 102.945 316.983 102.614 315.858C102.282 314.732 103.476 313.295 100.267 312.467C99.5708 312.293 98.8579 312.196 98.1408 312.178L70.8602 311.448C70.0553 311.49 69.2522 311.337 68.5176 311.003C68.1697 310.847 67.8909 310.568 67.7344 310.218C67.5779 309.869 67.5546 309.473 67.669 309.108C64.5749 310.527 60.4466 308.592 59.5316 305.299C59.3938 304.8 59.3166 304.286 59.3018 303.768C60.9549 305.762 63.9473 306.652 66.3253 305.548Z" fill="black"/>
</g>
<path d="M102.946 212.574C100.598 217.599 98.5221 222.749 96.7271 228C95.2773 232.231 93.9999 236.676 94.4817 241.126C94.9635 245.575 97.5758 250.069 101.819 251.471C103.622 252.067 105.554 252.071 107.45 252.116C111.992 252.223 116.524 252.592 121.024 253.219C123.119 253.568 125.23 253.804 127.349 253.927C130.346 254.025 133.343 253.553 136.331 253.798C141.166 254.194 145.759 256.467 150.612 256.467C151.204 256.504 151.796 256.394 152.336 256.147C153.22 255.666 153.613 254.625 153.914 253.664C154.59 251.493 155.12 249.001 153.976 247.039C152.566 244.623 149.361 244.138 146.581 243.924C140.322 243.479 134.056 243.168 127.782 242.99C122.43 242.839 116.631 242.634 112.48 239.226C112.2 239.024 111.972 238.759 111.813 238.452C111.656 237.931 111.675 237.372 111.866 236.863C113.511 230.392 114.217 223.715 113.961 217.041C113.989 216.442 113.835 215.849 113.519 215.341C113.143 214.934 112.655 214.649 112.118 214.522C108.412 213.326 104.445 213.214 100.679 214.202" fill="#FAA1A1"/>
<path d="M114.071 217.035C114.713 217.257 115.271 217.672 115.672 218.223C115.495 216.368 115.733 214.494 115.698 212.626C115.663 210.757 115.318 208.808 114.147 207.357C112.657 205.507 110.124 204.844 107.755 204.781C104.316 204.688 100.758 205.693 98.2388 208.052C96.6171 209.58 95.5642 211.621 95.2552 213.836C95.1757 214.445 94.9105 216.732 95.5426 217.124C96.0951 217.471 98.1946 216.274 98.8709 216.083C103.892 214.597 109.272 214.934 114.071 217.035Z" fill="black"/>
<path d="M487.366 309.093C462.056 287.26 451.092 307.749 448.773 320.722H512.946C512.228 303.255 495.594 305.692 487.366 309.093Z" fill="#6C63FF" stroke="black" stroke-width="4"/>
<path d="M149.887 321.594H563.896" stroke="black" stroke-width="3"/>
<path d="M399.019 91.1976V320.183H384.077V75.5202" stroke="black" stroke-width="4"/>
<path d="M309.308 75.2083V319.871H294.367V90.4106" stroke="black" stroke-width="4"/>
<path d="M346.435 35.7772L289.84 95.1614L283.275 88.2728L346.435 22L410.274 87.5602L403.03 95.1614L346.435 35.7772Z" fill="#F7F7F7" stroke="black" stroke-width="3"/>
<path d="M398.953 124.141H506.709L521.198 160.247M521.198 160.247H398.953M521.198 160.247V318.921H398.953" stroke="black" stroke-width="3.5"/>
<path d="M293.914 125.566H187.968L173.027 161.197M173.027 161.197H293.914M173.027 161.197V319.396H293.008" stroke="black" stroke-width="3.5"/>
<path d="M374.316 124.615C374.316 140.657 361.946 153.495 346.887 153.495C331.828 153.495 319.458 140.657 319.458 124.615C319.458 108.574 331.828 95.7355 346.887 95.7355C361.946 95.7355 374.316 108.574 374.316 124.615Z" fill="white" stroke="black" stroke-width="4"/>
<ellipse cx="346.888" cy="123.665" rx="2.2638" ry="2.37537" fill="black"/>
<rect x="345.528" y="100.387" width="3.62208" height="17.1027" rx="1.81104" fill="black"/>
<rect width="3.71168" height="9.84584" rx="1.85584" transform="matrix(0.692833 0.721098 -0.68696 0.726695 356.275 111.188)" fill="black"/>
<rect x="188.563" y="176.002" width="24.1656" height="37.8563" fill="#E1DED5" stroke="black" stroke-width="3"/>
<path d="M188.422 197.303H212.871" stroke="black" stroke-width="3"/>
<rect x="222.975" y="175.999" width="24.1656" height="37.8563" fill="#E1DED5" stroke="black" stroke-width="3"/>
<path d="M222.831 197.303H247.28" stroke="black" stroke-width="3"/>
<rect x="257.382" y="175.999" width="24.1656" height="37.8563" fill="#E1DED5" stroke="black" stroke-width="3"/>
<path d="M257.241 197.303H281.69" stroke="black" stroke-width="3"/>
<rect x="188.563" y="220.657" width="24.1656" height="37.8563" fill="#E1DED5" stroke="black" stroke-width="3"/>
<path d="M188.422 241.958H212.871" stroke="black" stroke-width="3"/>
<rect x="222.976" y="220.655" width="24.1656" height="37.8563" fill="#E1DED5" stroke="black" stroke-width="3"/>
<path d="M222.832 241.957H247.281" stroke="black" stroke-width="3"/>
<rect x="257.382" y="220.655" width="24.1656" height="37.8563" fill="#E1DED5" stroke="black" stroke-width="3"/>
<path d="M257.242 241.957H281.691" stroke="black" stroke-width="3"/>
<rect x="188.562" y="265.314" width="24.1656" height="37.8563" fill="#E1DED5" stroke="black" stroke-width="3"/>
<path d="M188.422 286.617H212.871" stroke="black" stroke-width="3"/>
<rect x="222.975" y="265.313" width="24.1656" height="37.8563" fill="#E1DED5" stroke="black" stroke-width="3"/>
<path d="M222.831 286.617H247.28" stroke="black" stroke-width="3"/>
<rect x="257.381" y="265.313" width="24.1656" height="37.8563" fill="#E1DED5" stroke="black" stroke-width="3"/>
<path d="M257.241 286.617H281.69" stroke="black" stroke-width="3"/>
<rect x="505.211" y="303.167" width="24.1656" height="37.8563" transform="rotate(-180 505.211 303.167)" fill="#E1DED5" stroke="black" stroke-width="3"/>
<path d="M505.352 281.863H480.903" stroke="black" stroke-width="3"/>
<rect x="470.8" y="303.168" width="24.1656" height="37.8563" transform="rotate(-180 470.8 303.168)" fill="#E1DED5" stroke="black" stroke-width="3"/>
<path d="M470.943 281.863H446.494" stroke="black" stroke-width="3"/>
<rect x="436.391" y="303.168" width="24.1656" height="37.8563" transform="rotate(-180 436.391 303.168)" fill="#E1DED5" stroke="black" stroke-width="3"/>
<path d="M436.534 281.863H412.084" stroke="black" stroke-width="3"/>
<rect x="505.211" y="258.508" width="24.1656" height="37.8563" transform="rotate(-180 505.211 258.508)" fill="#E1DED5" stroke="black" stroke-width="3"/>
<path d="M505.352 237.208H480.903" stroke="black" stroke-width="3"/>
<rect x="470.8" y="258.511" width="24.1656" height="37.8563" transform="rotate(-180 470.8 258.511)" fill="#E1DED5" stroke="black" stroke-width="3"/>
<path d="M470.942 237.207H446.493" stroke="black" stroke-width="3"/>
<rect x="436.391" y="258.511" width="24.1656" height="37.8563" transform="rotate(-180 436.391 258.511)" fill="#E1DED5" stroke="black" stroke-width="3"/>
<path d="M436.533 237.208H412.084" stroke="black" stroke-width="3"/>
<rect x="505.211" y="213.85" width="24.1656" height="37.8563" transform="rotate(-180 505.211 213.85)" fill="#E1DED5" stroke="black" stroke-width="3"/>
<path d="M505.352 192.549H480.903" stroke="black" stroke-width="3"/>
<rect x="470.8" y="213.854" width="24.1656" height="37.8563" transform="rotate(-180 470.8 213.854)" fill="#E1DED5" stroke="black" stroke-width="3"/>
<path d="M470.942 192.55H446.493" stroke="black" stroke-width="3"/>
<rect x="436.391" y="213.854" width="24.1656" height="37.8563" transform="rotate(-180 436.391 213.854)" fill="#E1DED5" stroke="black" stroke-width="3"/>
<path d="M436.533 192.551H412.084" stroke="black" stroke-width="3"/>
<path d="M328.512 277.038C328.512 266.64 336.942 258.211 347.339 258.211C357.737 258.211 366.166 266.64 366.166 277.038V318.821H328.512V277.038Z" fill="white" stroke="black" stroke-width="4"/>
<path d="M347.266 256.246L347.266 320.724" stroke="black" stroke-width="3"/>
<path d="M482.263 135.067C484.074 137.442 488.783 140.768 493.129 135.067M456.003 146.469C457.814 148.844 462.523 152.17 466.869 146.469M416.613 136.492C418.424 138.868 423.132 142.193 427.479 136.492" stroke="black" stroke-width="3"/>
<path d="M265.39 135.543C267.201 137.918 271.91 141.244 276.256 135.543M239.13 146.945C240.941 149.32 245.649 152.646 249.996 146.945M199.74 136.968C201.551 139.344 206.259 142.669 210.606 136.968" stroke="black" stroke-width="3"/>
<path d="M543.299 134.865V143.44M543.299 322.972V143.44M543.299 143.44C548.621 141.101 560.622 134.865 567.249 144.61L573.105 155.914L573.711 157.083C569.783 155.004 561.47 151.47 559.646 153.965C562.56 158.642 569.606 168.388 574.471 169.947C570.417 170.337 563.447 169.167 559.646 166.828C555.084 164.49 548.469 161.215 543.299 169.947" stroke="black" stroke-width="3"/>
<path d="M550.169 131.117C550.169 135.071 547.126 138.193 543.472 138.193C539.818 138.193 536.775 135.071 536.775 131.117C536.775 127.163 539.818 124.04 543.472 124.04C547.126 124.04 550.169 127.163 550.169 131.117Z" fill="#6C63FF" stroke="black" stroke-width="2"/>
<path d="M395.722 308.334C380.784 303.448 376.899 314.285 376.824 320.315H422.717C417.318 295.132 402.471 301.835 395.722 308.334Z" fill="#6C63FF" stroke="black" stroke-width="4"/>
<path d="M294.166 308.063C308.471 303.399 312.191 313.743 312.262 319.499H268.314C273.484 295.46 287.703 301.859 294.166 308.063Z" fill="#6C63FF" stroke="black" stroke-width="4"/>
<path d="M204.358 307.014C230.742 284.341 242.172 305.617 244.589 319.089H177.694C178.443 300.951 195.782 303.481 204.358 307.014Z" fill="#6C63FF" stroke="black" stroke-width="4"/>
<path d="M266.151 399C280.657 399 338.094 351 365 327H332.83C280.774 343.889 164.728 377.667 117 377.667L266.151 399Z" fill="#C4C4C4"/>
</g>
<defs>
<clipPath id="clip0">
<rect width="603" height="378" fill="white"/>
</clipPath>
</defs>
</svg>
