<svg width="172" height="164" viewBox="0 0 172 164" fill="none" xmlns="http://www.w3.org/2000/svg">
<path opacity="0.2" d="M163 138.565H142V127.565H163V138.565ZM142.887 137.74H162.113V128.39H142.887V137.74Z" fill="#FFD749"/>
<g opacity="0.7">
<g opacity="0.1">
<path opacity="0.1" d="M41.2339 52.1772C40.2223 51.8396 39.0046 51.538 38.1799 52.2104C37.7016 52.6005 37.4954 53.2287 37.1243 53.7212C35.89 55.351 33.4023 55.0467 31.4368 55.6305C28.5477 56.4883 26.7637 59.3689 25.7411 62.1913C21.2164 74.6433 26.2606 88.8855 22.3215 101.531C21.1614 105.253 19.2647 109.384 21.1394 112.807C21.7634 113.95 22.7888 114.902 23.0911 116.164C23.5145 117.876 22.6981 120.123 24.1247 121.167C24.5701 121.49 25.1336 121.593 25.6669 121.72C28.8776 122.572 31.3104 125.087 33.7569 127.323C36.2034 129.559 39.1447 131.723 42.4627 131.576C43.535 131.487 44.5937 131.276 45.6184 130.945L62.0843 126.33C63.7337 125.868 65.526 125.309 66.4826 123.892C67.0681 123.026 67.2523 121.955 67.4007 120.926C67.9689 116.992 68.2382 113.021 68.2062 109.047C68.2062 107.735 68.1457 106.393 67.6564 105.173C67.1066 103.764 66.007 102.638 65.2071 101.351C63.6622 98.8609 63.2471 95.8697 62.865 92.9725C62.2575 88.3598 61.65 83.6557 62.4912 79.0789C62.8513 77.1143 63.4725 75.205 63.8849 73.2542C64.553 70.0759 64.659 66.804 64.1982 63.5887C63.8134 60.9184 62.9887 58.2094 61.1744 56.2005C59.987 54.8619 58.3736 53.9814 56.6113 53.7101C54.3847 53.4334 53.2769 54.7229 51.2922 55.2044C48.3563 55.9432 44.057 53.1152 41.2339 52.1772Z" fill="url(#paint0_linear)"/>
</g>
<path opacity="0.7" d="M41.2339 51.5156C40.2223 51.178 39.0046 50.8764 38.1799 51.5488C37.7016 51.9389 37.4954 52.567 37.1243 53.0596C35.89 54.6894 33.4023 54.385 31.4368 54.9689C28.5477 55.8267 26.7637 58.7073 25.7411 61.5297C21.2164 73.9817 26.2606 88.224 22.3215 100.87C21.1614 104.591 19.2647 108.723 21.1394 112.146C21.7634 113.288 22.7888 114.24 23.0911 115.502C23.5145 117.215 22.6981 119.462 24.1247 120.505C24.5701 120.829 25.1336 120.931 25.6669 121.058C28.8776 121.911 31.3104 124.426 33.7569 126.662C36.2034 128.898 39.1392 131.086 42.4627 130.931C43.535 130.842 44.5937 130.631 45.6184 130.301L62.0843 125.685C63.7337 125.223 65.526 124.664 66.4826 123.247C67.0681 122.381 67.2523 121.31 67.4007 120.281C67.9689 116.348 68.2382 112.376 68.2062 108.402C68.2062 107.09 68.1457 105.748 67.6564 104.528C67.1066 103.119 66.007 101.993 65.2071 100.706C63.6622 98.216 63.2471 95.2247 62.865 92.3276C62.2575 87.7148 61.65 83.0107 62.4912 78.434C62.8513 76.4693 63.4725 74.56 63.8849 72.6092C64.553 69.431 64.659 66.159 64.1982 62.9437C63.8134 60.2734 62.9887 57.5644 61.1744 55.5555C59.987 54.2169 58.3736 53.3364 56.6113 53.0651C54.3847 52.7884 53.2769 54.0779 51.2922 54.5594C48.3563 55.2788 44.057 52.4674 41.2339 51.5156Z" fill="url(#paint1_linear)"/>
<path opacity="0.7" d="M36.5934 26.9413C36.5934 26.9413 36.9205 39.277 33.0061 38.9533C29.0916 38.6295 44.0869 59.4049 44.0869 59.4049L56.8088 52.5868C56.8088 52.5868 49.3098 40.5776 54.5327 33.1091C59.7556 25.6407 36.5934 26.9413 36.5934 26.9413Z" fill="url(#paint2_linear)"/>
<g opacity="0.1">
<path opacity="0.1" d="M14.734 131.799C14.734 131.799 12.1253 149.655 5.59937 144.785C-0.926517 139.915 0.052093 131.799 0.052093 131.799C0.052093 131.799 12.7768 97.3877 12.1253 92.1911C11.4738 86.9945 33.8416 46.6169 33.8416 46.6169L42.1267 112.969C42.1267 112.969 17.3427 122.059 14.734 131.799Z" fill="url(#paint3_linear)"/>
</g>
<g opacity="0.1">
<path opacity="0.1" d="M51.2724 43.1721C51.2724 43.1721 59.2855 45.2834 64.896 46.3155C65.7701 46.4728 66.5951 46.8354 67.3039 47.3739C68.0127 47.9124 68.5854 48.6116 68.9753 49.4147C70.6686 52.9317 73.2499 59.2933 72.8045 64.5978L77.6976 83.7517L91.717 100.631L78.9978 106.478L64.6486 90.5698L76.3919 120.762L54.5326 121.736C54.5326 121.736 48.0067 73.0347 49.6396 64.9243L51.2724 43.1721Z" fill="url(#paint4_linear)"/>
</g>
<path opacity="0.7" d="M48.4993 57.2954L51.9244 43.1721L56.3309 51.4513L54.0466 58.2694L48.4993 57.2954Z" fill="url(#paint5_linear)"/>
<path opacity="0.1" d="M60.8967 61.5156C60.8967 61.5156 60.8967 83.5916 63.8325 85.2131L60.8967 61.5156Z" fill="url(#paint6_linear)"/>
<path opacity="0.1" d="M18.811 67.033C18.811 67.033 12.0405 88.7741 13.9565 91.0514L18.811 67.033Z" fill="url(#paint7_linear)"/>
<path opacity="0.1" d="M17.5077 96.8953C17.5077 96.8953 30.5595 105.387 32.3518 105.523L17.5077 96.8953Z" fill="url(#paint8_linear)"/>
<g opacity="0.1">
<path opacity="0.1" d="M36.9178 28.238C36.9178 28.238 36.9673 30.139 36.7914 32.4274C37.955 35.1449 39.8855 37.4588 42.3434 39.0821C44.8014 40.7053 47.6787 41.5665 50.6184 41.5589C51.424 41.5583 52.2282 41.4935 53.0237 41.3652C52.9384 38.9357 53.403 36.4978 54.8599 34.417C60.0801 26.9403 36.9178 28.238 36.9178 28.238Z" fill="url(#paint9_linear)"/>
</g>
<g opacity="0.1">
<path opacity="0.1" d="M59.8159 19.0404C61.6329 19.2839 63.9392 18.6806 64.2993 16.8876C64.7419 14.6241 61.6989 13.152 61.2288 10.8912C61.0529 10.0445 61.2618 9.15904 61.1601 8.29847C60.9567 6.56626 59.5492 5.23251 58.117 4.22529C53.5697 1.05609 48.0611 -0.405085 42.5528 0.0967626C41.871 0.160406 41.1536 0.271094 40.6285 0.705529C40.0293 1.19531 39.8039 1.99223 39.3888 2.6425C37.9813 4.906 34.8201 5.17163 32.5523 6.58286C29.8996 8.24312 28.5856 11.4723 28.4674 14.5826C28.3492 17.6928 29.2398 20.7449 30.1167 23.7334C30.8672 26.2736 31.6534 28.883 33.3 30.9638C34.9466 33.0447 37.679 34.4974 40.2657 33.8721C39.0809 33.0225 39.9413 31.0496 41.225 30.3578C42.5088 29.6661 44.1031 29.5471 45.2 28.5924C46.2968 27.6378 46.6266 26.0744 46.984 24.6521C47.4348 22.859 48.0836 21.0382 49.403 19.7294C51.9897 17.167 56.6491 18.617 59.8159 19.0404Z" fill="url(#paint10_linear)"/>
</g>
<g opacity="0.1">
<path opacity="0.1" d="M47.6993 27.334C47.4794 28.8781 46.9901 31.5511 46.0692 33.239C44.8514 35.4357 43.8099 37.7267 42.9547 40.0904C42.9547 40.0904 48.9638 44.7197 52.0261 47.8825C52.9688 48.8759 54.1751 49.5759 55.5016 49.8991C56.828 50.2224 58.2188 50.1554 59.5086 49.7061C61.1002 49.1305 62.4939 48.0181 62.865 45.9317C63.4477 42.6417 62.755 40.1596 62.1008 38.6902C61.7854 37.996 61.6204 37.2423 61.6166 36.4789C61.6128 35.7156 61.7703 34.9602 62.0788 34.2629C62.3042 33.7648 62.5681 33.3746 62.8622 33.2778C62.8622 33.2778 56.9906 31.98 56.6635 33.6015C56.3363 35.2231 51.7704 36.8473 50.7918 33.9253L50.5169 27.4835C50.4999 27.1184 50.3434 26.7741 50.0801 26.5224C49.8168 26.2708 49.4671 26.1313 49.104 26.1331C48.7655 26.1298 48.4372 26.2494 48.1792 26.47C47.9212 26.6905 47.7509 26.9973 47.6993 27.334Z" fill="url(#paint11_linear)"/>
</g>
</g>
<path d="M37.8339 121.457C37.8339 121.457 15.1118 113.064 12 124.876L20.7151 147.249L21.6413 161.565H40.6288V149.437C40.6288 149.437 37.8285 137.315 45 129.852L37.8339 121.457Z" fill="#939393"/>
<path opacity="0.1" d="M41.5087 53.9199C40.5159 53.5954 39.3177 53.3039 38.5105 53.9529C38.0408 54.3297 37.8383 54.9347 37.4727 55.4104C36.2605 56.9834 33.8164 56.6891 31.8869 57.2529C29.0491 58.0779 27.2996 60.8608 26.2927 63.5778C21.8489 75.5923 26.8018 89.3421 22.9345 101.544C21.8095 105.135 19.9335 109.123 21.773 112.425C22.3861 113.525 23.3846 114.446 23.6911 115.665C24.1074 117.315 23.3058 119.487 24.7065 120.494C25.1424 120.807 25.6965 120.903 26.2196 121.044C29.3725 121.869 31.7632 124.294 34.1651 126.453C36.567 128.612 39.4584 130.699 42.7153 130.558C43.767 130.472 44.805 130.268 45.8091 129.951L61.9814 125.496C63.6042 125.048 65.3564 124.509 66.3043 123.142C66.8668 122.317 67.0609 121.277 67.2071 120.279C67.765 116.482 68.0292 112.65 67.9974 108.815C67.9974 107.55 67.9384 106.254 67.4631 105.077C66.9005 103.719 65.843 102.633 65.0555 101.387C63.5395 98.989 63.1289 96.096 62.7548 93.2993C62.1586 88.8471 61.5623 84.307 62.3864 79.8905C62.7408 77.9958 63.3511 76.1533 63.7561 74.2696C64.4128 71.2015 64.5175 68.045 64.0655 64.9418C63.6886 62.365 62.8758 59.7498 61.0982 57.8111C59.9372 56.5221 58.3508 55.6716 56.615 55.4077C54.4268 55.1327 53.3384 56.3866 51.3893 56.8514C48.5064 57.5416 44.2819 54.8274 41.5087 53.9199Z" fill="black"/>
<path d="M41.5075 52.9199C40.5147 52.5954 39.3166 52.3039 38.5095 52.9529C38.0398 53.3297 37.8373 53.9347 37.4717 54.4104C36.2596 55.9834 33.8156 55.6891 31.8863 56.2529C29.0486 57.0779 27.2993 59.8608 26.2924 62.5778C21.8488 74.5924 26.8015 88.3421 22.9344 100.544C21.8095 104.135 19.9336 108.123 21.7729 111.425C22.386 112.525 23.3844 113.446 23.691 114.665C24.1072 116.315 23.3057 118.487 24.7062 119.494C25.1422 119.807 25.6962 119.903 26.2193 120.044C29.372 120.869 31.7625 123.294 34.1643 125.453C36.5661 127.612 39.4572 129.699 42.714 129.558C43.7656 129.472 44.8036 129.269 45.8076 128.951L61.9817 124.499C63.6045 124.05 65.3566 123.511 66.3044 122.145C66.8669 121.32 67.0609 120.28 67.2072 119.282C67.765 115.485 68.0292 111.653 67.9974 107.817C67.9974 106.552 67.9384 105.257 67.4631 104.08C66.9006 102.722 65.8431 101.635 65.0557 100.39C63.5398 97.9917 63.1292 95.0988 62.7551 92.3021C62.1589 87.8499 61.5627 83.3097 62.3867 78.8933C62.7411 76.9986 63.3514 75.1561 63.7563 73.2724C64.413 70.2043 64.5177 67.0478 64.0657 63.9445C63.6888 61.3678 62.8761 58.7526 61.0986 56.8139C59.9411 55.5235 58.358 54.6702 56.6241 54.4022C54.4361 54.1272 53.3477 55.3811 51.3987 55.8459C48.5047 56.5444 44.2805 53.8274 41.5075 52.9199Z" fill="#E0E0E0"/>
<path d="M37.1584 28.6508C37.1584 28.6508 37.4786 40.7773 33.6389 40.458C29.7992 40.1386 44.5203 60.5652 44.5203 60.5652L57 53.8618C57 53.8618 49.6409 42.0547 54.7529 34.7126C59.865 27.3706 37.1584 28.6508 37.1584 28.6508Z" fill="#FDB797"/>
<path opacity="0.1" d="M15.3368 131.159C15.3368 131.159 12.7983 148.471 6.44808 143.749C0.0978268 139.028 1.05078 131.159 1.05078 131.159C1.05078 131.159 13.4308 97.7928 12.7955 92.7562C12.1602 87.7196 33.9389 48.5652 33.9389 48.5652L42 112.9C42 112.9 17.8752 121.716 15.3368 131.159Z" fill="black"/>
<path d="M14.9871 131.159C14.9871 131.159 12.5106 148.471 6.3152 143.749C0.119838 139.028 1.04954 131.159 1.04954 131.159C1.04954 131.159 13.1277 97.7928 12.5078 92.7562C11.888 87.7196 33.1355 48.5652 33.1355 48.5652L41 112.9C41 112.9 17.4636 121.716 14.9871 131.159Z" fill="black"/>
<path d="M38 36.5652C38 36.5652 25.6502 45.169 20.8999 44.8501L17.2085 45.871C13.5434 46.8847 10.2326 48.9088 7.64972 51.715C5.06682 54.5212 3.31456 57.9978 2.5906 61.7528L2.53223 62.0577C0.630975 72.2558 0 100.299 0 100.299C0 100.299 0.316875 107.627 3.48285 109.53L23.749 123.565C23.749 123.565 23.1152 108.268 30.7174 106.676C38.3197 105.085 28.8162 106.039 28.8162 106.039L14.882 97.751C14.882 97.751 15.1989 85.3237 18.9986 81.1812C22.7983 77.0387 36.0988 55.3699 36.0988 55.3699L32.299 41.9719L38 36.5652Z" fill="black"/>
<path opacity="0.1" d="M51.7866 45.5652C51.7866 45.5652 59.36 47.6078 64.656 48.5975C65.4847 48.7523 66.2656 49.1047 66.935 49.6259C67.6044 50.1472 68.1433 50.8225 68.5077 51.5967C70.1062 55.0011 72.5432 61.1511 72.124 66.2839L76.7465 84.8139L90 101.144L77.9799 106.806L64.4288 91.4188L75.5185 120.639L54.87 121.565C54.87 121.565 48.7058 74.4546 50.2475 66.6037L51.7866 45.5652Z" fill="black"/>
<path d="M51.8339 45.5652C51.8339 45.5652 59.5961 47.6078 65.0242 48.5975C65.8735 48.7523 66.6739 49.1047 67.36 49.6259C68.0461 50.1472 68.5984 50.8225 68.9718 51.5967C70.6102 55.0011 73.108 61.1511 72.6783 66.2839L77.4161 84.8139L91 101.144L78.683 106.798L64.7858 91.4078L76.1519 120.628L54.9914 121.565C54.9914 121.565 48.6735 74.4546 50.2537 66.6037L51.8339 45.5652Z" fill="black"/>
<path d="M36.6449 35.5652L41 56.9348L33.8921 60.5652L30 41.3157L36.6449 35.5652Z" fill="#E0E0E0"/>
<path d="M49 58.6614L52.0622 45.5652L56 53.2417L53.9594 59.5652L49 58.6614Z" fill="#E0E0E0"/>
<path opacity="0.1" d="M60 63.5652C60 63.5652 60 84.9889 62 86.5652L60 63.5652Z" fill="black"/>
<path opacity="0.1" d="M20 68.5652C20 68.5652 14.7962 88.4798 16.2594 90.5652L20 68.5652Z" fill="black"/>
<path opacity="0.1" d="M19 97.5652C19 97.5652 31.3094 105.438 33 105.565L19 97.5652Z" fill="black"/>
<path opacity="0.1" d="M37.1271 29.6622C37.1271 29.6622 37.1791 31.7903 37 34.3524C38.3212 37.8041 40.6536 40.6657 43.6232 42.4784C46.5929 44.291 50.0277 44.9497 53.3767 44.3487C53.29 41.627 53.7609 38.8991 55.2284 36.5667C60.489 28.2073 37.1271 29.6622 37.1271 29.6622Z" fill="black"/>
<path d="M50 42.5652C57.732 42.5652 64 36.0733 64 28.0652C64 20.0571 57.732 13.5652 50 13.5652C42.268 13.5652 36 20.0571 36 28.0652C36 36.0733 42.268 42.5652 50 42.5652Z" fill="#FDB797"/>
<path opacity="0.1" d="M58.8362 21.4549C60.5082 21.6827 62.6383 21.1145 62.9595 19.4314C63.3676 17.3006 60.5687 15.9176 60.1369 13.8029C59.9737 12.9989 60.1685 12.1734 60.0737 11.3666C59.8868 9.73705 58.5913 8.48271 57.2748 7.5366C53.106 4.56027 48.0354 3.18514 42.9644 3.65566C42.3378 3.71731 41.6769 3.81916 41.1924 4.22655C40.6421 4.68754 40.4289 5.43532 40.0523 6.05445C38.7569 8.18253 35.8395 8.43447 33.7674 9.76117C31.3266 11.313 30.1206 14.3604 30.01 17.2872C29.8995 20.214 30.721 23.0845 31.5319 25.8933C32.2218 28.2841 32.9459 30.7365 34.4598 32.693C35.9738 34.6496 38.4883 36.0165 40.8633 35.4268C39.7732 34.6228 40.5658 32.7707 41.7454 32.1221C42.9249 31.4735 44.3784 31.3609 45.4026 30.4604C46.4268 29.5598 46.7191 28.0911 47.043 26.7537C47.459 25.0651 48.0593 23.3552 49.2679 22.1223C51.6428 19.6833 55.9162 21.0556 58.8362 21.4549Z" fill="black"/>
<path d="M58.5853 21.4706C60.358 21.6984 62.6164 21.1302 62.957 19.447C63.3897 17.3161 60.4222 15.9331 59.9643 13.8184C59.7913 13.0143 59.9979 12.1887 59.8974 11.382C59.6852 9.73895 58.3061 8.47922 56.9102 7.53844C52.4928 4.56293 47.1199 3.18689 41.7458 3.65471C41.0813 3.71636 40.3806 3.81821 39.867 4.22561C39.2835 4.68662 39.0574 5.43442 38.6582 6.05357C37.2846 8.18172 34.1915 8.43366 31.9944 9.7604C29.4065 11.3123 28.1279 14.3598 28.0107 17.2866C27.8934 20.2135 28.7644 23.0841 29.6242 25.893C30.3557 28.2839 31.1234 30.7363 32.7286 32.6929C34.3338 34.6495 36.9999 36.0165 39.518 35.4268C38.3622 34.6227 39.2025 32.7706 40.4532 32.122C41.7039 31.4734 43.2449 31.3608 44.3309 30.4602C45.4168 29.5597 45.7267 28.0909 46.0701 26.7534C46.5112 25.0648 47.1477 23.3548 48.4291 22.1219C50.9444 19.7069 55.4865 21.0766 58.5853 21.4706Z" fill="black"/>
<path d="M112 68.8008C112 68.8008 111.361 91.4628 110.722 94.3372C110.083 97.2116 100.83 105.812 96.0354 106.146C96.0354 106.146 90.9268 118.274 85.1793 116.36C79.4318 114.447 78.7928 104.232 81.668 102.955L100.83 90.824V66.5652L112 68.8008Z" fill="#FDB797"/>
<path d="M110.508 96.5652C110.508 96.5652 102.108 114.418 103.078 117.289C104.048 120.16 158 117.289 158 117.289C158 117.289 147.984 107.406 149.924 96.5652H110.508Z" fill="black"/>
<path d="M118.17 44.4932C118.17 44.4932 119.362 57.1088 117.275 60.0221C115.189 62.9353 125.616 64.5652 126.51 64.5652C127.405 64.5652 136.938 61.0074 138.724 60.0221C140.51 59.0368 142 51.9353 142 51.9353C142 51.9353 133.063 53.8775 130.383 42.5652L118.17 44.4932Z" fill="#FDB797"/>
<path d="M114.543 12.6504C112.106 13.5036 109.858 15.1387 108.819 17.4432C108.457 18.2443 108.24 19.1194 107.715 19.8327C106.543 21.4185 104.255 21.7175 102.632 22.8505C100.542 24.3183 99.7681 27.0782 100.059 29.5693C100.35 32.0603 101.525 34.3566 102.682 36.5952C103.9 38.9464 105.159 41.3551 107.156 43.1329C108.087 43.9559 109.231 44.7351 109.528 45.9312C109.782 46.9572 109.333 48.0299 109.426 49.0807C109.658 51.6787 112.854 52.8886 115.523 53.1767C116.684 53.3029 118.011 53.3083 118.83 52.499C119.248 52.082 119.46 51.5169 119.722 50.9956C120.329 49.8018 121.265 48.7947 122.426 48.0861C123.586 47.3776 124.926 46.9953 126.297 46.9816C127.668 46.968 129.015 47.3236 130.191 48.0089C131.366 48.6941 132.323 49.6824 132.955 50.8639C133.582 52.0326 133.946 53.4537 135.085 54.1561C136.827 55.2534 139.159 53.9668 140.45 52.3811C141.741 50.7953 142.667 48.8146 144.5 47.8626C145.064 47.5635 145.748 47.3633 146.137 46.853C146.841 45.9339 146.242 44.5622 146.722 43.517C147.084 42.7296 147.967 42.2989 148.484 41.5965C149.543 40.1617 148.767 38.1782 147.984 36.5897L143.387 27.358C142.113 24.8011 140.828 22.225 139.049 19.9727C133.585 13.0921 123.094 9.66002 114.543 12.6504Z" fill="black"/>
<path opacity="0.1" d="M125.569 61.0688C125.569 61.0688 137.724 61.0688 140.843 49.5652L151.074 57.7019C151.781 58.2636 152.368 58.967 152.801 59.7692C153.234 60.5714 153.502 61.4556 153.591 62.3679L154.557 72.2666C154.557 72.2666 155.651 75.9421 154.401 78.1811C154.401 78.1811 141.466 74.8142 141.154 78.6609L150.182 104.552C150.182 104.552 136.156 104.872 132.416 102.308C132.416 102.308 117.143 105.504 113.403 101.988C109.663 98.4724 105.924 98.7922 109.026 90.7986C109.026 90.7986 102.791 84.4043 105.598 75.4539C108.405 66.5035 105.754 75.6138 105.754 75.6138C105.754 75.6138 99.6998 72.578 100.012 66.8094L100.635 61.0548C100.635 61.0548 100.668 60.864 100.756 60.5217C102.657 52.9461 107.762 48.7375 114.941 51.4198C117.039 52.1998 119.184 51.3048 119.184 51.3048C119.184 51.3048 116.842 61.7085 125.569 61.0688Z" fill="black"/>
<path d="M125.569 61.0688C125.569 61.0688 137.724 61.0688 140.843 49.5652L151.074 57.7019C151.781 58.2636 152.368 58.967 152.801 59.7692C153.234 60.5714 153.502 61.4556 153.591 62.3679L154.557 72.2666C154.557 72.2666 155.651 75.9421 154.401 78.1811C154.401 78.1811 141.466 74.8142 141.154 78.6609L150.182 104.552C150.182 104.552 136.156 104.872 132.416 102.308C132.416 102.308 117.143 105.504 113.403 101.988C109.663 98.4724 105.924 98.7922 109.026 90.7986C109.026 90.7986 102.791 84.4043 105.598 75.4539C108.405 66.5035 105.754 75.6138 105.754 75.6138C105.754 75.6138 99.6998 72.578 100.012 66.8234L100.635 61.0688C100.635 61.0688 100.668 60.878 100.756 60.5357C102.657 52.9601 107.762 48.7515 114.941 51.4338C117.039 52.2138 119.184 51.3188 119.184 51.3188C119.184 51.3188 116.842 61.7085 125.569 61.0688Z" fill="#FFD749"/>
<path d="M154 70.8062C154 70.8062 153.381 93.4656 152.762 96.3397C152.143 99.2138 143.174 107.825 138.534 108.147C138.534 108.147 133.585 120.274 128.017 118.36C122.45 116.447 121.831 106.234 124.616 104.956L143.174 92.8297V68.5652L154 70.8062Z" fill="#FDB797"/>
<path opacity="0.1" d="M141 72.5793C141 72.5793 147.9 77.9888 153.904 77.5386C153.904 77.5386 154.504 68.2468 152.703 67.7265C150.902 67.2062 143.088 67.7265 141 72.5793Z" fill="black"/>
<path d="M141 72.5793C141 72.5793 147.9 77.9888 153.904 77.5386C153.904 77.5386 154.504 68.2468 152.703 67.7265C150.902 67.2062 143.088 67.7265 141 72.5793Z" fill="#FFD749"/>
<path opacity="0.1" d="M131.284 43.5652L118 45.4278C118 45.4278 118.299 48.2271 118.358 51.4431C120.941 52.486 123.778 52.8108 126.545 52.3802C129.311 51.9496 131.895 50.7811 134 49.0087C132.879 47.6988 131.921 45.9288 131.284 43.5652Z" fill="black"/>
<path d="M124 50.5652C131.732 50.5652 138 44.521 138 37.0652C138 29.6093 131.732 23.5652 124 23.5652C116.268 23.5652 110 29.6093 110 37.0652C110 44.521 116.268 50.5652 124 50.5652Z" fill="#FDB797"/>
<path opacity="0.1" d="M127.491 33.6417C126.892 33.881 126.251 33.9783 125.613 33.9268C123.127 33.9097 120.641 33.8146 118.157 33.6417C116.279 33.5077 114.267 33.2711 112.815 31.9912C110.862 30.2808 110.553 27.0396 111.562 24.5652C112.571 22.0908 114.629 20.2664 116.802 18.8639C118.03 18.0413 119.359 17.4042 120.751 16.971C124.776 15.808 129.24 17.2362 132.441 20.0868C135.642 22.9375 137.684 27.0538 138.765 31.3412C139.138 32.8236 139.618 34.591 141 35.0471C140.08 36.672 137.834 36.9314 136.224 36.1161C133.847 34.9159 132.629 30.3207 130.496 29.5966C128.116 28.7842 129.501 32.6611 127.491 33.6417Z" fill="black"/>
<path d="M127.493 33.636C126.894 33.8753 126.253 33.9725 125.614 33.9211C123.128 33.904 120.642 33.8089 118.158 33.636C116.279 33.502 114.267 33.2654 112.815 31.9855C110.862 30.2751 110.553 27.0339 111.562 24.5595C112.571 22.0851 114.629 20.2607 116.803 18.8582C118.03 18.0378 119.358 17.4027 120.75 16.971C124.775 15.808 129.239 17.2362 132.44 20.0868C135.642 22.9375 137.684 27.0538 138.765 31.3412C139.138 32.8236 139.618 34.591 141 35.0471C140.08 36.672 137.834 36.9314 136.224 36.1161C133.847 34.9159 132.628 30.3207 130.495 29.5966C128.118 28.7785 129.502 32.6497 127.493 33.636Z" fill="black"/>
<path opacity="0.1" d="M110 89.5652C114.24 88.2302 118.611 87.5578 123 87.5652L110 89.5652Z" fill="black"/>
<path d="M164 115.565H31V163.565H164V115.565Z" fill="#E0E0E0"/>
<path opacity="0.1" d="M164 118.565H31V125.565H164V118.565Z" fill="black"/>
<path d="M172 109.565H21V123.565H172V109.565Z" fill="#E0E0E0"/>
<path d="M70.1397 106.565H43.8603C42.8329 106.565 42 107.351 42 108.321V108.81C42 109.779 42.8329 110.565 43.8603 110.565H70.1397C71.1671 110.565 72 109.779 72 108.81V108.321C72 107.351 71.1671 106.565 70.1397 106.565Z" fill="#8C8C8C"/>
<path d="M122.496 62.5652H68.5042C64.3597 62.5652 61 65.8276 61 69.8521V103.278C61 107.303 64.3597 110.565 68.5042 110.565H122.496C126.64 110.565 130 107.303 130 103.278V69.8521C130 65.8276 126.64 62.5652 122.496 62.5652Z" fill="#3E3F49"/>
<path d="M123.496 62.5652H69.5042C65.3597 62.5652 62 65.8276 62 69.8521V103.278C62 107.303 65.3597 110.565 69.5042 110.565H123.496C127.64 110.565 131 107.303 131 103.278V69.8521C131 65.8276 127.64 62.5652 123.496 62.5652Z" fill="#8C8C8C"/>
<path opacity="0.1" d="M11 116.565C11 116.565 12.7651 118.862 18 119.565L11 116.565Z" fill="black"/>
<defs>
<linearGradient id="paint0_linear" x1="19482.6" y1="45462" x2="27816" y2="45462" gradientUnits="userSpaceOnUse">
<stop stop-color="#808080" stop-opacity="0.25"/>
<stop offset="0.54" stop-color="#808080" stop-opacity="0.12"/>
<stop offset="1" stop-color="#808080" stop-opacity="0.1"/>
</linearGradient>
<linearGradient id="paint1_linear" x1="19482.6" y1="45283.8" x2="27816" y2="45283.8" gradientUnits="userSpaceOnUse">
<stop stop-color="#808080" stop-opacity="0.25"/>
<stop offset="0.54" stop-color="#808080" stop-opacity="0.12"/>
<stop offset="1" stop-color="#808080" stop-opacity="0.1"/>
</linearGradient>
<linearGradient id="paint2_linear" x1="11044.5" y1="12841.6" x2="13221.2" y2="12841.6" gradientUnits="userSpaceOnUse">
<stop stop-color="#808080" stop-opacity="0.25"/>
<stop offset="0.54" stop-color="#808080" stop-opacity="0.12"/>
<stop offset="1" stop-color="#808080" stop-opacity="0.1"/>
</linearGradient>
<linearGradient id="paint3_linear" x1="14012.2" y1="57987.3" x2="20469.8" y2="57987.3" gradientUnits="userSpaceOnUse">
<stop stop-color="#808080" stop-opacity="0.25"/>
<stop offset="0.54" stop-color="#808080" stop-opacity="0.12"/>
<stop offset="1" stop-color="#808080" stop-opacity="0.1"/>
</linearGradient>
<linearGradient id="paint4_linear" x1="21737.9" y1="42138.3" x2="28260.3" y2="42138.3" gradientUnits="userSpaceOnUse">
<stop stop-color="#808080" stop-opacity="0.25"/>
<stop offset="0.54" stop-color="#808080" stop-opacity="0.12"/>
<stop offset="1" stop-color="#808080" stop-opacity="0.1"/>
</linearGradient>
<linearGradient id="paint5_linear" x1="3212.86" y1="5330.86" x2="3435.99" y2="5330.86" gradientUnits="userSpaceOnUse">
<stop stop-color="#808080" stop-opacity="0.25"/>
<stop offset="0.54" stop-color="#808080" stop-opacity="0.12"/>
<stop offset="1" stop-color="#808080" stop-opacity="0.1"/>
</linearGradient>
<linearGradient id="paint6_linear" x1="1687.78" y1="11980.4" x2="1719.13" y2="11980.4" gradientUnits="userSpaceOnUse">
<stop stop-color="#808080" stop-opacity="0.25"/>
<stop offset="0.54" stop-color="#808080" stop-opacity="0.12"/>
<stop offset="1" stop-color="#808080" stop-opacity="0.1"/>
</linearGradient>
<linearGradient id="paint7_linear" x1="1999.28" y1="12640.2" x2="2097.48" y2="12640.2" gradientUnits="userSpaceOnUse">
<stop stop-color="#808080" stop-opacity="0.25"/>
<stop offset="0.54" stop-color="#808080" stop-opacity="0.12"/>
<stop offset="1" stop-color="#808080" stop-opacity="0.1"/>
</linearGradient>
<linearGradient id="paint8_linear" x1="5900.36" y1="5304.72" x2="6701.94" y2="5304.72" gradientUnits="userSpaceOnUse">
<stop stop-color="#808080" stop-opacity="0.25"/>
<stop offset="0.54" stop-color="#808080" stop-opacity="0.12"/>
<stop offset="1" stop-color="#808080" stop-opacity="0.1"/>
</linearGradient>
<linearGradient id="paint9_linear" x1="8822.65" y1="4905.38" x2="10113" y2="4905.38" gradientUnits="userSpaceOnUse">
<stop stop-color="#808080" stop-opacity="0.25"/>
<stop offset="0.54" stop-color="#808080" stop-opacity="0.12"/>
<stop offset="1" stop-color="#808080" stop-opacity="0.1"/>
</linearGradient>
<linearGradient id="paint10_linear" x1="15679.6" y1="10182.4" x2="20364.9" y2="10182.4" gradientUnits="userSpaceOnUse">
<stop stop-color="#808080" stop-opacity="0.25"/>
<stop offset="0.54" stop-color="#808080" stop-opacity="0.12"/>
<stop offset="1" stop-color="#808080" stop-opacity="0.1"/>
</linearGradient>
<linearGradient id="paint11_linear" x1="9883.77" y1="9028.08" x2="11357" y2="9028.08" gradientUnits="userSpaceOnUse">
<stop stop-color="#808080" stop-opacity="0.25"/>
<stop offset="0.54" stop-color="#808080" stop-opacity="0.12"/>
<stop offset="1" stop-color="#808080" stop-opacity="0.1"/>
</linearGradient>
</defs>
</svg>
