<svg width="44" height="40" viewBox="0 0 44 40" fill="none" xmlns="http://www.w3.org/2000/svg">
<path d="M1 1H13.6C15.8278 1 17.9644 1.89657 19.5397 3.49246C21.115 5.08836 22 7.25286 22 9.5098V39.2941C22 37.6014 21.3363 35.978 20.1548 34.7811C18.9733 33.5842 17.3709 32.9118 15.7 32.9118H1V1Z" fill="white" stroke="black" stroke-width="1.5" stroke-linecap="round"/>
<path d="M43 1H30.4C28.1722 1 26.0356 1.89657 24.4603 3.49246C22.885 5.08836 22 7.25286 22 9.5098V39.2941C22 37.6014 22.6637 35.978 23.8452 34.7811C25.0267 33.5842 26.6291 32.9118 28.3 32.9118H43V1Z" fill="white" stroke="black" stroke-width="1.5" stroke-linecap="round"/>
<rect x="26" y="7" width="9" height="1" fill="#C4C4C4"/>
<rect x="26" y="10" width="12" height="1" fill="#C4C4C4"/>
<rect x="26" y="12" width="12" height="1" fill="#C4C4C4"/>
<rect x="26" y="14" width="12" height="1" fill="#C4C4C4"/>
<rect x="26" y="16" width="6" height="1" fill="#C4C4C4"/>
<rect x="26" y="21" width="12" height="1" fill="#C4C4C4"/>
<rect x="26" y="24" width="8" height="1" fill="#C4C4C4"/>
<rect x="26" y="26" width="8" height="1" fill="#C4C4C4"/>
<rect x="26" y="28" width="12" height="1" fill="#C4C4C4"/>
</svg>
