<svg width="21" height="20" viewBox="0 0 21 20" fill="none" xmlns="http://www.w3.org/2000/svg">
<path fill-rule="evenodd" clip-rule="evenodd" d="M15.5 0H5.5C2.73858 0 0.5 2.23858 0.5 5V15C0.5 17.7614 2.73858 20 5.5 20H15.5C18.2614 20 20.5 17.7614 20.5 15V5C20.5 2.23858 18.2614 0 15.5 0ZM14.5 10.3701C14.6234 11.2023 14.4812 12.0523 14.0937 12.7991C13.7062 13.5459 13.0931 14.1515 12.3416 14.5297C11.5901 14.908 10.7384 15.0397 9.90774 14.906C9.07708 14.7723 8.30971 14.3801 7.71479 13.7852C7.11987 13.1903 6.72768 12.4229 6.59402 11.5923C6.46035 10.7616 6.59202 9.90995 6.97028 9.15843C7.34854 8.40691 7.95414 7.7938 8.70094 7.4063C9.44773 7.0188 10.2977 6.87665 11.13 7.00006C11.9789 7.12594 12.7648 7.52152 13.3716 8.12836C13.9785 8.73521 14.3741 9.52113 14.5 10.3701ZM16 3.5C15.4477 3.5 15 3.94772 15 4.5C15 5.05228 15.4477 5.5 16 5.5H16.01C16.5623 5.5 17.01 5.05228 17.01 4.5C17.01 3.94772 16.5623 3.5 16.01 3.5H16Z" fill="white"/>
</svg>
