<svg width="53" height="55" viewBox="0 0 53 55" fill="none" xmlns="http://www.w3.org/2000/svg">
<ellipse cx="12.5" cy="14" rx="10.5" ry="11" fill="white" stroke="black" stroke-width="1.5"/>
<path d="M35.3404 15.8925L35.2844 15.928C34.2099 16.6084 33.8838 18.0944 34.6271 19.2681L35.6573 20.8951C35.8625 21.2192 35.766 21.649 35.4419 21.8542C35.1175 22.0596 34.6881 21.9629 34.4829 21.6388L32.5805 18.6346C31.8372 17.4608 30.3802 17.0456 29.306 17.7258C28.2259 18.4097 27.9783 19.9044 28.7216 21.0782L30.7379 24.2623C30.9433 24.5867 30.8466 25.0162 30.5225 25.2214C30.1981 25.4268 29.7689 25.3305 29.5635 25.006L26.9935 20.9476C26.2504 19.7741 24.7773 19.4082 23.7031 20.0884L23.6435 20.1261C22.5962 20.7893 22.2773 22.223 22.9947 23.3558L25.8886 27.9258C26.094 28.2502 25.9973 28.6796 25.6732 28.8849C25.3488 29.0903 24.9195 28.9939 24.7141 28.6695L21.9041 24.2319C21.8949 24.2175 21.8837 24.2034 21.8744 24.1887C21.8516 24.1527 21.8304 24.1156 21.8078 24.0798L15.2379 13.7048C14.4946 12.531 13.0044 12.1373 11.9306 12.8173C10.8564 13.4975 10.5752 15.0125 11.3169 16.1859L22.1998 33.3982C22.3566 33.6464 22.341 33.9662 22.1603 34.1977C21.9799 34.429 21.6734 34.5221 21.3947 34.43L17.7569 33.2302C16.7855 32.8946 15.7182 32.9782 14.8104 33.4607C13.9272 33.9415 13.2835 34.7679 13.0335 35.7419C13.0305 35.7531 13.0279 35.7657 13.0242 35.7772L12.835 36.3681L28.6247 45.5453C31.1171 46.9938 34.0998 47.0002 36.3972 45.5454L44.6305 40.3318C48.1341 38.1131 49.0353 33.2238 46.6478 29.4455C45.3836 27.4447 44.4358 25.9436 43.6724 24.7344C41.6315 21.5019 40.8806 20.3132 38.6195 16.7607C37.8756 15.5918 36.412 15.2139 35.3404 15.8925Z" fill="white" stroke="black" stroke-width="1.5"/>
</svg>
