<svg width="23" height="19" viewBox="0 0 23 19" fill="none" xmlns="http://www.w3.org/2000/svg">
<path d="M22.5 1.00005C21.5424 1.67552 20.4821 2.19216 19.36 2.53005C18.7577 1.83756 17.9573 1.34674 17.067 1.12397C16.1767 0.901206 15.2395 0.957242 14.3821 1.2845C13.5247 1.61176 12.7884 2.19445 12.273 2.95376C11.7575 3.71308 11.4877 4.61238 11.5 5.53005V6.53005C9.74263 6.57561 8.00127 6.18586 6.43101 5.39549C4.86074 4.60513 3.51032 3.43868 2.5 2.00005C2.5 2.00005 -1.5 11 7.5 15C5.44053 16.398 2.98716 17.099 0.5 17C9.5 22 20.5 17 20.5 5.50005C20.4991 5.2215 20.4723 4.94364 20.42 4.67005C21.4406 3.66354 22.1608 2.39276 22.5 1.00005Z" fill="white"/>
</svg>
