<svg width="354" height="397" viewBox="0 0 354 397" fill="none" xmlns="http://www.w3.org/2000/svg">
<path d="M306.261 245.475C306.57 204.439 341.849 149.153 352.326 116.216C353.936 111.155 348.93 106.871 343.843 108.396C323.778 114.411 280.887 125.477 246.38 123.621C218.386 122.115 200.172 97.9688 185.163 74.2917C74.303 -100.587 59.1723 77.6014 79.51 192.992C79.51 192.992 84.5985 216.479 35.5052 284.328C-51.1435 397.604 48.778 415.974 81.3752 378.215C203.593 215.451 221.747 302.058 326.156 376.118C327.967 377.402 330.432 377.637 332.195 376.289C355.309 358.625 329.914 296.579 310.716 260.933C308.131 256.132 306.22 250.928 306.261 245.475Z" stroke="white" stroke-width="2"/>
</svg>
